<?xml version="1.0" standalone="yes"?>

<svg version="1.1" viewBox="0.0 0.0 749.0 237.0" fill="none" stroke="none" stroke-linecap="square" stroke-miterlimit="10" xmlns="http://www.w3.org/2000/svg" xmlns:xlink="http://www.w3.org/1999/xlink"><clipPath id="p.0"><path d="m0 0l749.0 0l0 237.0l-749.0 0l0 -237.0z" clip-rule="nonzero"></path></clipPath><g clip-path="url(#p.0)"><path fill="#000000" fill-opacity="0.0" d="m0 0l749.94226 0l0 237.04987l-749.94226 0z" fill-rule="nonzero"></path><path fill="#0092f8" fill-opacity="0.6731" d="m611.3307 111.28609l0 0c0 15.637924 -12.677002 28.314957 -28.314941 28.314957l0 0c-7.5095825 0 -14.711609 -2.9831696 -20.021729 -8.293259c-5.3100586 -5.3100815 -8.293213 -12.5121 -8.293213 -20.021698l0 0c0 -15.637917 12.677002 -28.314957 28.314941 -28.314957l0 0c15.637939 0 28.314941 12.67704 28.314941 28.314957z" fill-rule="nonzero"></path><path stroke="#000000" stroke-width="2.0" stroke-linejoin="round" stroke-linecap="butt" d="m611.3307 111.28609l0 0c0 15.637924 -12.677002 28.314957 -28.314941 28.314957l0 0c-7.5095825 0 -14.711609 -2.9831696 -20.021729 -8.293259c-5.3100586 -5.3100815 -8.293213 -12.5121 -8.293213 -20.021698l0 0c0 -15.637917 12.677002 -28.314957 28.314941 -28.314957l0 0c15.637939 0 28.314941 12.67704 28.314941 28.314957z" fill-rule="nonzero"></path><path fill="#000000" fill-opacity="0.0" d="m554.7008 111.28609l-139.02365 0.12598419" fill-rule="nonzero"></path><path stroke="#000000" stroke-width="2.0" stroke-linejoin="round" stroke-linecap="butt" d="m554.7008 111.28609l-127.02365 0.115104675" fill-rule="evenodd"></path><path fill="#000000" stroke="#000000" stroke-width="2.0" stroke-linecap="butt" d="m427.67416 108.09773l-9.073181 3.3116913l9.079163 3.2952423z" fill-rule="evenodd"></path><path fill="#0092f8" fill-opacity="0.6731" d="m415.66928 111.419945l0 0c0 15.637924 -12.677032 28.314964 -28.314941 28.314964l0 0c-7.509613 0 -14.711639 -2.9831696 -20.021698 -8.293259c-5.310089 -5.310089 -8.293274 -12.512108 -8.293274 -20.021706l0 0c0 -15.637917 12.677032 -28.314957 28.314972 -28.314957l0 0c15.637909 0 28.314941 12.67704 28.314941 28.314957z" fill-rule="nonzero"></path><path stroke="#000000" stroke-width="2.0" stroke-linejoin="round" stroke-linecap="butt" d="m415.66928 111.419945l0 0c0 15.637924 -12.677032 28.314964 -28.314941 28.314964l0 0c-7.509613 0 -14.711639 -2.9831696 -20.021698 -8.293259c-5.310089 -5.310089 -8.293274 -12.512108 -8.293274 -20.021706l0 0c0 -15.637917 12.677032 -28.314957 28.314972 -28.314957l0 0c15.637909 0 28.314941 12.67704 28.314941 28.314957z" fill-rule="nonzero"></path><path fill="#0092f8" fill-opacity="0.6731" d="m282.12598 111.28609l0 0c0 15.637924 -12.677032 28.314957 -28.314957 28.314957l0 0c-7.509598 0 -14.711609 -2.9831696 -20.021698 -8.293259c-5.310089 -5.3100815 -8.293259 -12.5121 -8.293259 -20.021698l0 0c0 -15.637917 12.677032 -28.314957 28.314957 -28.314957l0 0c15.637924 0 28.314957 12.67704 28.314957 28.314957z" fill-rule="nonzero"></path><path stroke="#000000" stroke-width="2.0" stroke-linejoin="round" stroke-linecap="butt" d="m282.12598 111.28609l0 0c0 15.637924 -12.677032 28.314957 -28.314957 28.314957l0 0c-7.509598 0 -14.711609 -2.9831696 -20.021698 -8.293259c-5.310089 -5.3100815 -8.293259 -12.5121 -8.293259 -20.021698l0 0c0 -15.637917 12.677032 -28.314957 28.314957 -28.314957l0 0c15.637924 0 28.314957 12.67704 28.314957 28.314957z" fill-rule="nonzero"></path><path fill="#000000" fill-opacity="0.0" d="m359.03937 111.821526l-76.91339 -0.53543854" fill-rule="nonzero"></path><path stroke="#000000" stroke-width="2.0" stroke-linejoin="round" stroke-linecap="butt" d="m359.03937 111.821526l-64.913666 -0.45189667" fill-rule="evenodd"></path><path fill="#000000" stroke="#000000" stroke-width="2.0" stroke-linecap="butt" d="m294.14868 108.06624l-9.0989685 3.2402039l9.0529785 3.3665695z" fill-rule="evenodd"></path><path fill="#000000" fill-opacity="0.0" d="m225.49606 112.08924l-76.91339 -0.53543854" fill-rule="nonzero"></path><path stroke="#000000" stroke-width="2.0" stroke-linejoin="round" stroke-linecap="butt" d="m225.49606 112.08924l-64.913666 -0.45189667" fill-rule="evenodd"></path><path fill="#000000" stroke="#000000" stroke-width="2.0" stroke-linecap="butt" d="m160.60538 108.333954l-9.0989685 3.2402039l9.0529785 3.3665695z" fill-rule="evenodd"></path><path fill="#0092f8" fill-opacity="0.6731" d="m148.58267 111.5538l0 0c0 15.637924 -12.677032 28.314957 -28.314957 28.314957l0 0c-7.509598 0 -14.7116165 -2.9831696 -20.021698 -8.293259c-5.310089 -5.3100815 -8.293266 -12.5121 -8.293266 -20.021698l0 0c0 -15.637917 12.67704 -28.314957 28.314964 -28.314957l0 0c15.637924 0 28.314957 12.67704 28.314957 28.314957z" fill-rule="nonzero"></path><path stroke="#000000" stroke-width="2.0" stroke-linejoin="round" stroke-linecap="butt" d="m148.58267 111.5538l0 0c0 15.637924 -12.677032 28.314957 -28.314957 28.314957l0 0c-7.509598 0 -14.7116165 -2.9831696 -20.021698 -8.293259c-5.310089 -5.3100815 -8.293266 -12.5121 -8.293266 -20.021698l0 0c0 -15.637917 12.67704 -28.314957 28.314964 -28.314957l0 0c15.637924 0 28.314957 12.67704 28.314957 28.314957z" fill-rule="nonzero"></path><path fill="#000000" fill-opacity="0.0" d="m91.95276 111.821526l-76.91339 -0.53543854" fill-rule="nonzero"></path><path stroke="#000000" stroke-width="2.0" stroke-linejoin="round" stroke-linecap="butt" d="m91.95276 111.821526l-64.91368 -0.45189667" fill-rule="evenodd"></path><path fill="#000000" stroke="#000000" stroke-width="2.0" stroke-linecap="butt" d="m27.062073 108.06624l-9.098972 3.2402039l9.0529785 3.3665695z" fill-rule="evenodd"></path><path fill="#000000" fill-opacity="0.0" d="m674.8583 56.501312l-63.527588 54.771652" fill-rule="nonzero"></path><path stroke="#000000" stroke-width="2.0" stroke-linejoin="round" stroke-linecap="butt" d="m674.8583 56.501312l-54.439087 46.935837" fill-rule="evenodd"></path><path fill="#000000" stroke="#000000" stroke-width="2.0" stroke-linecap="butt" d="m618.2621 100.9352l-4.71698 8.428566l9.031189 -3.4246597z" fill-rule="evenodd"></path><path fill="#cfe2f3" d="m611.3307 12.721785l127.055115 0l0 43.779526l-127.055115 0z" fill-rule="nonzero"></path><path stroke="#000000" stroke-width="2.0" stroke-linejoin="round" stroke-linecap="butt" d="m611.3307 12.721785l127.055115 0l0 43.779526l-127.055115 0z" fill-rule="nonzero"></path><path fill="#000000" d="m646.1313 33.2203l0 0.46875q0.421875 -0.40625 0.75 -0.546875q0.34375 -0.15625 0.78125 -0.15625q0.375 0 0.734375 0.1875q0.375 0.171875 0.71875 0.53125q0.4375 -0.359375 0.890625 -0.53125q0.453125 -0.1875 0.921875 -0.1875q0.953125 0 1.546875 0.515625q0.78125 0.65625 0.78125 1.734375l0 3.8125q0.53125 0 0.78125 0.25q0.265625 0.234375 0.265625 0.609375q0 0.375 -0.265625 0.609375q-0.25 0.234375 -0.875 0.234375l-1.609375 0l0 -5.375q0 -0.390625 -0.140625 -0.53125q-0.140625 -0.15625 -0.4375 -0.15625q-0.28125 0 -0.515625 0.15625q-0.3125 0.203125 -0.75 0.78125l0 3.421875q0.53125 0 0.78125 0.25q0.265625 0.234375 0.265625 0.609375q0 0.375 -0.265625 0.609375q-0.25 0.234375 -0.875 0.234375l-1.609375 0l0 -5.375q0 -0.375 -0.15625 -0.53125q-0.140625 -0.15625 -0.421875 -0.15625q-0.296875 0 -0.59375 0.1875q-0.296875 0.1875 -0.703125 0.75l0 3.421875q0.53125 0 0.796875 0.25q0.265625 0.234375 0.265625 0.609375q0 0.375 -0.265625 0.609375q-0.265625 0.234375 -0.875 0.234375l-1.53125 0q-0.625 0 -0.875 -0.234375q-0.265625 -0.234375 -0.265625 -0.625q0 -0.375 0.265625 -0.609375q0.25 -0.234375 0.78125 -0.234375l0 -4.125q-0.53125 0 -0.78125 -0.234375q-0.265625 -0.25 -0.265625 -0.625q0 -0.375 0.265625 -0.609375q0.25 -0.234375 0.875 -0.234375l1.609375 0zm14.55481 7.53125l0 -0.40625q-0.625 0.34375 -1.40625 0.515625q-0.765625 0.171875 -1.40625 0.171875q-1.359375 0 -2.21875 -0.71875q-0.859375 -0.734375 -0.859375 -1.609375q0 -1.078125 1.09375 -1.984375q1.09375 -0.921875 3.015625 -0.921875q0.78125 0 1.78125 0.15625l0 -0.40625q0 -0.375 -0.328125 -0.609375q-0.3125 -0.25 -1.234375 -0.25q-0.765625 0 -1.96875 0.296875q-0.453125 0.109375 -0.6875 0.109375q-0.34375 0 -0.59375 -0.234375q-0.234375 -0.25 -0.234375 -0.640625q0 -0.203125 0.078125 -0.359375q0.09375 -0.171875 0.234375 -0.265625q0.15625 -0.09375 0.640625 -0.21875q0.625 -0.171875 1.28125 -0.28125q0.65625 -0.109375 1.1875 -0.109375q1.578125 0 2.453125 0.6875q0.875 0.6875 0.875 1.875l0 3.5l0.296875 0q0.609375 0 0.875 0.234375q0.265625 0.234375 0.265625 0.625q0 0.375 -0.265625 0.609375q-0.265625 0.234375 -0.875 0.234375l-2.0 0zm0 -3.046875q-1.015625 -0.203125 -1.875 -0.203125q-1.046875 0 -1.78125 0.515625q-0.46875 0.3125 -0.46875 0.65625q0 0.234375 0.21875 0.390625q0.421875 0.265625 1.140625 0.265625q0.609375 0 1.390625 -0.234375q0.78125 -0.25 1.375 -0.65625l0 -0.734375zm10.711121 -2.5q-0.40625 -0.25 -0.875 -0.375q-0.453125 -0.140625 -0.953125 -0.140625q-0.984375 0 -1.5625 0.328125q-0.265625 0.140625 -0.265625 0.3125q0 0.1875 0.359375 0.359375q0.265625 0.140625 1.1875 0.265625q1.6875 0.234375 2.359375 0.46875q0.859375 0.296875 1.328125 0.90625q0.484375 0.609375 0.484375 1.28125q0 0.90625 -0.8125 1.53125q-1.140625 0.890625 -2.984375 0.890625q-0.75 0 -1.375 -0.140625q-0.625 -0.125 -1.140625 -0.375q-0.125 0.109375 -0.265625 0.171875q-0.140625 0.046875 -0.296875 0.046875q-0.390625 0 -0.640625 -0.25q-0.234375 -0.265625 -0.234375 -0.875l0 -0.578125q0 -0.609375 0.234375 -0.875q0.25 -0.265625 0.625 -0.265625q0.3125 0 0.515625 0.171875q0.203125 0.171875 0.328125 0.59375q0.390625 0.328125 0.9375 0.5q0.546875 0.171875 1.25 0.171875q1.171875 0 1.828125 -0.375q0.296875 -0.171875 0.296875 -0.375q0 -0.328125 -0.4375 -0.546875q-0.4375 -0.21875 -1.8125 -0.375q-2.046875 -0.203125 -2.734375 -0.828125q-0.703125 -0.609375 -0.703125 -1.484375q0 -0.921875 0.78125 -1.53125q1.046875 -0.828125 2.734375 -0.828125q0.59375 0 1.140625 0.125q0.546875 0.109375 1.03125 0.328125q0.15625 -0.109375 0.296875 -0.15625q0.140625 -0.0625 0.25 -0.0625q0.359375 0 0.59375 0.265625q0.234375 0.25 0.234375 0.859375l0 0.421875q0 0.5625 -0.140625 0.75q-0.265625 0.390625 -0.71875 0.390625q-0.3125 0 -0.546875 -0.1875q-0.234375 -0.203125 -0.296875 -0.515625zm8.14856 -0.28125l0 3.40625q0 0.546875 0.21875 0.71875q0.34375 0.28125 1.25 0.28125q1.296875 0 2.40625 -0.5625q0.421875 -0.21875 0.65625 -0.21875q0.328125 0 0.578125 0.25q0.25 0.25 0.25 0.609375q0 0.328125 -0.265625 0.578125q-0.40625 0.390625 -1.609375 0.71875q-1.203125 0.328125 -2.015625 0.328125q-1.59375 0 -2.390625 -0.6875q-0.78125 -0.6875 -0.78125 -1.6875l0 -3.734375l-0.625 0q-0.609375 0 -0.875 -0.234375q-0.25 -0.25 -0.25 -0.625q0 -0.375 0.25 -0.609375q0.265625 -0.234375 0.875 -0.234375l0.625 0l0 -1.5468769q0 -0.609375 0.234375 -0.859375q0.234375 -0.265625 0.609375 -0.265625q0.375 0 0.609375 0.265625q0.25 0.25 0.25 0.859375l0 1.5468769l3.140625 0q0.609375 0 0.875 0.234375q0.265625 0.234375 0.265625 0.609375q0 0.375 -0.265625 0.625q-0.265625 0.234375 -0.875 0.234375l-3.140625 0zm15.08606 2.921875l-6.984375 0q0.265625 0.671875 0.9375 1.078125q0.6875 0.40625 1.828125 0.40625q0.953125 0 2.515625 -0.40625q0.65625 -0.171875 0.90625 -0.171875q0.34375 0 0.5625 0.25q0.234375 0.234375 0.234375 0.59375q0 0.328125 -0.25 0.5625q-0.328125 0.3125 -1.625 0.59375q-1.28125 0.28125 -2.46875 0.28125q-2.03125 0 -3.265625 -1.15625q-1.21875 -1.15625 -1.21875 -2.84375q0 -1.796875 1.328125 -2.921875q1.328125 -1.125 3.046875 -1.125q1.03125 0 1.890625 0.375q0.875 0.359375 1.3125 0.78125q0.59375 0.609375 0.984375 1.515625q0.265625 0.640625 0.265625 1.46875l0 0.71875zm-1.890625 -1.703125q-0.390625 -0.734375 -1.03125 -1.09375q-0.625 -0.359375 -1.484375 -0.359375q-0.875 0 -1.5 0.359375q-0.625 0.359375 -1.03125 1.09375l5.046875 0zm7.6641846 -2.921875l0 1.0625q1.0625 -0.78125 1.6875 -1.03125q0.625 -0.265625 1.15625 -0.265625q0.828125 0 1.609375 0.625q0.53125 0.40625 0.53125 0.84375q0 0.359375 -0.25 0.625q-0.25 0.25 -0.609375 0.25q-0.3125 0 -0.671875 -0.3125q-0.34375 -0.328125 -0.609375 -0.328125q-0.359375 0 -1.078125 0.453125q-0.703125 0.453125 -1.765625 1.34375l0 2.5625l2.421875 0q0.609375 0 0.875 0.234375q0.265625 0.234375 0.265625 0.625q0 0.375 -0.265625 0.609375q-0.265625 0.234375 -0.875 0.234375l-5.140625 0q-0.609375 0 -0.875 -0.234375q-0.265625 -0.234375 -0.265625 -0.625q0 -0.375 0.265625 -0.609375q0.265625 -0.234375 0.875 -0.234375l1.015625 0l0 -4.125l-0.609375 0q-0.625 0 -0.890625 -0.234375q-0.25 -0.25 -0.25 -0.625q0 -0.375 0.25 -0.609375q0.265625 -0.234375 0.890625 -0.234375l2.3125 0z" fill-rule="nonzero"></path><path fill="#000000" fill-opacity="0.0" d="m97.10236 93.12861l46.33071 0l0 36.314964l-46.33071 0z" fill-rule="nonzero"></path><path fill="#000000" d="m117.75964 107.44046q0.171875 -0.234375 0.375 -0.359375q0.21875 -0.125 0.453125 -0.125q0.421875 0 0.6875 0.296875q0.265625 0.28125 0.265625 0.96875l0 1.609375q0 0.6875 -0.265625 0.984375q-0.265625 0.296875 -0.6875 0.296875q-0.375 0 -0.609375 -0.21875q-0.234375 -0.21875 -0.34375 -0.796875q-0.0625 -0.390625 -0.265625 -0.609375q-0.375 -0.40625 -1.0625 -0.65625q-0.671875 -0.25 -1.359375 -0.25q-0.859375 0 -1.578125 0.375q-0.703125 0.359375 -1.25 1.203125q-0.546875 0.828125 -0.546875 1.984375l0 1.234375q0 1.375 0.984375 2.296875q1.0 0.90625 2.78125 0.90625q1.046875 0 1.78125 -0.28125q0.4375 -0.171875 0.921875 -0.65625q0.296875 -0.296875 0.453125 -0.390625q0.171875 -0.09375 0.390625 -0.09375q0.375 0 0.65625 0.296875q0.296875 0.28125 0.296875 0.671875q0 0.390625 -0.390625 0.828125q-0.5625 0.65625 -1.453125 1.03125q-1.203125 0.5 -2.65625 0.5q-1.6875 0 -3.03125 -0.703125q-1.09375 -0.546875 -1.875 -1.75q-0.765625 -1.203125 -0.765625 -2.625l0 -1.296875q0 -1.484375 0.6875 -2.765625q0.6875 -1.28125 1.90625 -1.96875q1.234375 -0.703125 2.609375 -0.703125q0.828125 0 1.546875 0.1875q0.71875 0.1875 1.34375 0.578125zm12.367447 3.703125l0 2.09375q0 1.84375 -1.078125 3.546875q-1.078125 1.703125 -3.0625 1.703125q-1.15625 0 -1.953125 -0.5q-0.78125 -0.515625 -1.5 -1.875q-0.703125 -1.359375 -0.703125 -2.875l0 -2.09375q0 -1.84375 1.0625 -3.546875q1.0625 -1.703125 3.0625 -1.703125q1.140625 0 1.9375 0.5q0.796875 0.5 1.515625 1.859375q0.71875 1.359375 0.71875 2.890625zm-1.921875 0q0 -1.546875 -0.859375 -2.703125q-0.484375 -0.640625 -1.375 -0.640625q-0.875 0 -1.421875 0.703125q-0.828125 1.0625 -0.828125 2.640625l0 2.09375q0 1.546875 0.875 2.703125q0.484375 0.640625 1.390625 0.640625q0.84375 0 1.390625 -0.703125q0.828125 -1.0625 0.828125 -2.640625l0 -2.09375z" fill-rule="nonzero"></path><path fill="#000000" fill-opacity="0.0" d="m230.64568 93.7979l46.330704 0l0 36.314957l-46.330704 0z" fill-rule="nonzero"></path><path fill="#000000" d="m251.30295 108.10976q0.171875 -0.234375 0.375 -0.359375q0.21875 -0.125 0.453125 -0.125q0.421875 0 0.6875 0.296875q0.265625 0.28125 0.265625 0.96875l0 1.609375q0 0.6875 -0.265625 0.984375q-0.265625 0.296875 -0.6875 0.296875q-0.375 0 -0.609375 -0.21875q-0.234375 -0.21875 -0.34375 -0.796875q-0.0625 -0.390625 -0.265625 -0.609375q-0.375 -0.40625 -1.0625 -0.65625q-0.671875 -0.25 -1.359375 -0.25q-0.859375 0 -1.578125 0.375q-0.703125 0.359375 -1.25 1.203125q-0.546875 0.828125 -0.546875 1.984375l0 1.234375q0 1.375 0.984375 2.296875q1.0 0.90625 2.78125 0.90625q1.046875 0 1.78125 -0.28125q0.4375 -0.171875 0.921875 -0.65625q0.296875 -0.296875 0.453125 -0.390625q0.171875 -0.09375 0.390625 -0.09375q0.375 0 0.65625 0.296875q0.296875 0.28125 0.296875 0.671875q0 0.390625 -0.390625 0.828125q-0.5625 0.65625 -1.453125 1.03125q-1.203125 0.5 -2.65625 0.5q-1.6875 0 -3.03125 -0.703125q-1.09375 -0.546875 -1.875 -1.75q-0.765625 -1.203125 -0.765625 -2.625l0 -1.296875q0 -1.484375 0.6875 -2.765625q0.6875 -1.28125 1.90625 -1.96875q1.234375 -0.703125 2.609375 -0.703125q0.828125 0 1.546875 0.1875q0.71875 0.1875 1.34375 0.578125zm9.179962 -1.546875l0 10.40625l1.921875 0q0.6875 0 0.96875 0.265625q0.296875 0.265625 0.296875 0.6875q0 0.421875 -0.296875 0.6875q-0.28125 0.265625 -0.96875 0.265625l-5.75 0q-0.68751526 0 -0.98439026 -0.265625q-0.28125 -0.265625 -0.28125 -0.6875q0 -0.421875 0.28125 -0.6875q0.296875 -0.265625 0.98439026 -0.265625l1.921875 0l0 -7.921875l-1.6875 0.4375q-0.421875 0.109375 -0.625 0.109375q-0.35939026 0 -0.62501526 -0.28125q-0.265625 -0.296875 -0.265625 -0.703125q0 -0.390625 0.1875 -0.609375q0.203125 -0.21875 0.82814026 -0.375l4.09375 -1.0625z" fill-rule="nonzero"></path><path fill="#000000" fill-opacity="0.0" d="m364.18896 93.7979l46.33072 0l0 36.314957l-46.33072 0z" fill-rule="nonzero"></path><path fill="#000000" d="m384.84625 108.10976q0.171875 -0.234375 0.375 -0.359375q0.21875 -0.125 0.453125 -0.125q0.421875 0 0.6875 0.296875q0.265625 0.28125 0.265625 0.96875l0 1.609375q0 0.6875 -0.265625 0.984375q-0.265625 0.296875 -0.6875 0.296875q-0.375 0 -0.609375 -0.21875q-0.234375 -0.21875 -0.34375 -0.796875q-0.0625 -0.390625 -0.265625 -0.609375q-0.375 -0.40625 -1.0625 -0.65625q-0.671875 -0.25 -1.359375 -0.25q-0.859375 0 -1.578125 0.375q-0.703125 0.359375 -1.25 1.203125q-0.546875 0.828125 -0.546875 1.984375l0 1.234375q0 1.375 0.984375 2.296875q1.0 0.90625 2.78125 0.90625q1.046875 0 1.78125 -0.28125q0.4375 -0.171875 0.921875 -0.65625q0.296875 -0.296875 0.453125 -0.390625q0.171875 -0.09375 0.390625 -0.09375q0.375 0 0.65625 0.296875q0.296875 0.28125 0.296875 0.671875q0 0.390625 -0.390625 0.828125q-0.5625 0.65625 -1.453125 1.03125q-1.203125 0.5 -2.65625 0.5q-1.6875 0 -3.03125 -0.703125q-1.09375 -0.546875 -1.875 -1.75q-0.765625 -1.203125 -0.765625 -2.625l0 -1.296875q0 -1.484375 0.6875 -2.765625q0.6875 -1.28125 1.90625 -1.96875q1.234375 -0.703125 2.609375 -0.703125q0.828125 0 1.546875 0.1875q0.71875 0.1875 1.34375 0.578125zm10.929962 4.40625q0.84375 0.578125 1.25 1.34375q0.421875 0.75 0.421875 1.6875q0 1.015625 -0.5625 1.875q-0.546875 0.84375 -1.59375 1.296875q-1.046875 0.4375 -2.734375 0.4375q-2.21875 0 -3.328125 -0.6875q-0.625 -0.390625 -0.625 -0.9375q0 -0.40625 0.265625 -0.6875q0.28125 -0.28125 0.671875 -0.28125q0.265625 0 0.5625 0.1875q0.40625 0.28125 0.765625 0.375q0.5625 0.125 1.53125 0.125q1.65625 0 2.390625 -0.421875q0.75 -0.4375 0.75 -1.234375q0 -0.578125 -0.4375 -1.109375q-0.421875 -0.546875 -1.140625 -0.84375q-0.421875 -0.171875 -1.40625 -0.234375q-0.484375 -0.03125 -0.734375 -0.296875q-0.25 -0.265625 -0.25 -0.65625q0 -0.40625 0.265625 -0.6875q0.28125 -0.28125 0.71875 -0.28125q0.9375 0 1.0 0q0.375 -0.046875 0.734375 -0.25q0.375 -0.203125 0.609375 -0.546875q0.234375 -0.359375 0.234375 -0.75q0 -0.59375 -0.546875 -1.03125q-0.53125 -0.453125 -1.59375 -0.453125q-1.375 0 -2.09375 0.796875q-0.21875 0.234375 -0.34375 0.296875q-0.203125 0.109375 -0.4375 0.109375q-0.390625 0 -0.671875 -0.28125q-0.28125 -0.28125 -0.28125 -0.6875q0 -0.640625 0.859375 -1.25q1.25 -0.875 3.109375 -0.875q1.765625 0 2.828125 1.0q1.0625 1.0 1.0625 2.421875q0 0.71875 -0.3125 1.359375q-0.3125 0.640625 -0.9375 1.171875z" fill-rule="nonzero"></path><path fill="#000000" fill-opacity="0.0" d="m559.8504 93.66404l46.33069 0l0 36.314964l-46.33069 0z" fill-rule="nonzero"></path><path fill="#000000" d="m580.5077 107.9759q0.171875 -0.234375 0.375 -0.359375q0.21875 -0.125 0.453125 -0.125q0.421875 0 0.6875 0.296875q0.265625 0.28125 0.265625 0.96875l0 1.609375q0 0.6875 -0.265625 0.984375q-0.265625 0.296875 -0.6875 0.296875q-0.375 0 -0.609375 -0.21875q-0.234375 -0.21875 -0.34375 -0.796875q-0.0625 -0.390625 -0.265625 -0.609375q-0.375 -0.40625 -1.0625 -0.65625q-0.671875 -0.25 -1.359375 -0.25q-0.859375 0 -1.578125 0.375q-0.703125 0.359375 -1.25 1.203125q-0.546875 0.828125 -0.546875 1.984375l0 1.234375q0 1.375 0.984375 2.296875q1.0 0.90625 2.78125 0.90625q1.046875 0 1.78125 -0.28125q0.4375 -0.171875 0.921875 -0.65625q0.296875 -0.296875 0.453125 -0.390625q0.171875 -0.09375 0.390625 -0.09375q0.375 0 0.65625 0.296875q0.296875 0.28125 0.296875 0.671875q0 0.390625 -0.390625 0.828125q-0.5625 0.65625 -1.453125 1.03125q-1.203125 0.5 -2.65625 0.5q-1.6875 0 -3.03125 -0.703125q-1.09375 -0.546875 -1.875 -1.75q-0.765625 -1.203125 -0.765625 -2.625l0 -1.296875q0 -1.484375 0.6875 -2.765625q0.6875 -1.28125 1.90625 -1.96875q1.234375 -0.703125 2.609375 -0.703125q0.828125 0 1.546875 0.1875q0.71875 0.1875 1.34375 0.578125zm6.6018066 0.65625l0 2.265625q1.0625 -0.328125 1.921875 -0.328125q1.765625 0 2.921875 1.203125q1.15625 1.1875 1.15625 3.078125q0 1.953125 -1.171875 3.0625q-1.171875 1.109375 -3.59375 1.109375q-2.140625 0 -3.375 -0.8125q-0.734375 -0.46875 -0.734375 -1.0625q0 -0.375 0.28125 -0.65625q0.296875 -0.296875 0.6875 -0.296875q0.3125 0 0.6875 0.3125q0.390625 0.3125 0.8125 0.4375q0.59375 0.171875 1.515625 0.171875q1.734375 0 2.359375 -0.546875q0.625 -0.5625 0.625 -1.703125q0 -1.109375 -0.609375 -1.75q-0.59375 -0.640625 -1.5625 -0.640625q-1.03125 0 -2.34375 0.65625q-0.296875 0.15625 -0.515625 0.15625q-0.40625 0 -0.6875 -0.296875q-0.265625 -0.296875 -0.265625 -0.765625l0 -5.484375l5.8125 0q0.6875 0 0.96875 0.265625q0.296875 0.265625 0.296875 0.6875q0 0.421875 -0.296875 0.6875q-0.28125 0.25 -0.96875 0.25l-3.921875 0z" fill-rule="nonzero"></path><path fill="#000000" fill-opacity="0.0" d="m571.4934 196.00919l-76.91336 -0.5354309" fill-rule="nonzero"></path><path stroke="#000000" stroke-width="2.0" stroke-linejoin="round" stroke-linecap="butt" d="m571.4934 196.00919l-64.913635 -0.45188904" fill-rule="evenodd"></path><path fill="#000000" stroke="#000000" stroke-width="2.0" stroke-linecap="butt" d="m506.60275 192.2539l-9.0989685 3.2402039l9.0529785 3.366562z" fill-rule="evenodd"></path><path fill="#0092f8" fill-opacity="0.6731" d="m494.58005 195.47375l0 0c0 15.637924 -12.677032 28.314957 -28.314941 28.314957l0 0c-7.509613 0 -14.711639 -2.9831696 -20.021729 -8.293259c-5.3100586 -5.310089 -8.293243 -12.5121 -8.293243 -20.021698l0 0c0 -15.637924 12.677032 -28.314957 28.314972 -28.314957l0 0c15.637909 0 28.314941 12.677032 28.314941 28.314957z" fill-rule="nonzero"></path><path stroke="#000000" stroke-width="2.0" stroke-linejoin="round" stroke-linecap="butt" d="m494.58005 195.47375l0 0c0 15.637924 -12.677032 28.314957 -28.314941 28.314957l0 0c-7.509613 0 -14.711639 -2.9831696 -20.021729 -8.293259c-5.3100586 -5.310089 -8.293243 -12.5121 -8.293243 -20.021698l0 0c0 -15.637924 12.677032 -28.314957 28.314972 -28.314957l0 0c15.637909 0 28.314941 12.677032 28.314941 28.314957z" fill-rule="nonzero"></path><path fill="#000000" fill-opacity="0.0" d="m437.95013 195.74147l-76.91339 -0.5354309" fill-rule="nonzero"></path><path stroke="#000000" stroke-width="2.0" stroke-linejoin="round" stroke-linecap="butt" d="m437.95013 195.74147l-64.913666 -0.45188904" fill-rule="evenodd"></path><path fill="#000000" stroke="#000000" stroke-width="2.0" stroke-linecap="butt" d="m373.05945 191.98619l-9.0989685 3.2402039l9.0529785 3.366562z" fill-rule="evenodd"></path><path fill="#0092f8" fill-opacity="0.6731" d="m361.03674 195.20604l0 0c0 15.637924 -12.677032 28.314957 -28.314972 28.314957l0 0c-7.5095825 0 -14.711609 -2.9831696 -20.021698 -8.293259c-5.310089 -5.310089 -8.293243 -12.5121 -8.293243 -20.021698l0 0c0 -15.637924 12.677032 -28.314972 28.314941 -28.314972l0 0c15.637939 0 28.314972 12.677048 28.314972 28.314972z" fill-rule="nonzero"></path><path stroke="#000000" stroke-width="2.0" stroke-linejoin="round" stroke-linecap="butt" d="m361.03674 195.20604l0 0c0 15.637924 -12.677032 28.314957 -28.314972 28.314957l0 0c-7.5095825 0 -14.711609 -2.9831696 -20.021698 -8.293259c-5.310089 -5.310089 -8.293243 -12.5121 -8.293243 -20.021698l0 0c0 -15.637924 12.677032 -28.314972 28.314941 -28.314972l0 0c15.637939 0 28.314972 12.677048 28.314972 28.314972z" fill-rule="nonzero"></path><path fill="#000000" fill-opacity="0.0" d="m309.55643 177.58398l46.33072 0l0 36.314972l-46.33072 0z" fill-rule="nonzero"></path><path fill="#000000" d="m330.2137 191.89584q0.171875 -0.234375 0.375 -0.359375q0.21875 -0.125 0.453125 -0.125q0.421875 0 0.6875 0.296875q0.265625 0.28125 0.265625 0.96875l0 1.609375q0 0.6875 -0.265625 0.984375q-0.265625 0.296875 -0.6875 0.296875q-0.375 0 -0.609375 -0.21875q-0.234375 -0.21875 -0.34375 -0.796875q-0.0625 -0.390625 -0.265625 -0.609375q-0.375 -0.40625 -1.0625 -0.65625q-0.671875 -0.25 -1.359375 -0.25q-0.859375 0 -1.578125 0.375q-0.703125 0.359375 -1.25 1.203125q-0.546875 0.828125 -0.546875 1.984375l0 1.234375q0 1.375 0.984375 2.296875q1.0 0.90625 2.78125 0.90625q1.046875 0 1.78125 -0.28125q0.4375 -0.171875 0.921875 -0.65625q0.296875 -0.296875 0.453125 -0.390625q0.171875 -0.09375 0.390625 -0.09375q0.375 0 0.65625 0.296875q0.296875 0.28125 0.296875 0.671875q0 0.390625 -0.390625 0.828125q-0.5625 0.65625 -1.453125 1.03125q-1.203125 0.5 -2.65625 0.5q-1.6875 0 -3.03125 -0.703125q-1.09375 -0.546875 -1.875 -1.75q-0.765625 -1.203125 -0.765625 -2.625l0 -1.296875q0 -1.484375 0.6875 -2.765625q0.6875 -1.28125 1.90625 -1.96875q1.234375 -0.703125 2.609375 -0.703125q0.828125 0 1.546875 0.1875q0.71875 0.1875 1.34375 0.578125zm6.4299316 8.859375l4.171875 0q0.34375 -0.28125 0.640625 -0.28125q0.4375 0 0.6875 0.296875q0.265625 0.28125 0.265625 0.984375l0 0.90625l-8.671875 0l0 -2.015625q5.140625 -4.234375 6.21875 -5.453125q0.53125 -0.625 0.53125 -1.171875q0 -0.703125 -0.609375 -1.234375q-0.609375 -0.53125 -1.625 -0.53125q-1.015625 0 -1.6875 0.59375q-0.359375 0.3125 -0.5625 0.9375q-0.140625 0.390625 -0.375 0.5625q-0.21875 0.15625 -0.546875 0.15625q-0.390625 0 -0.671875 -0.28125q-0.28125 -0.28125 -0.28125 -0.640625q0 -0.5625 0.515625 -1.390625q0.515625 -0.84375 1.5 -1.34375q0.984375 -0.5 2.140625 -0.5q1.796875 0 2.953125 1.09375q1.15625 1.09375 1.15625 2.640625q0 0.78125 -0.328125 1.453125q-0.328125 0.671875 -1.59375 1.859375q-0.984375 0.9375 -3.828125 3.359375z" fill-rule="nonzero"></path><path fill="#000000" fill-opacity="0.0" d="m443.09973 176.9147l46.33072 0l0 36.314957l-46.33072 0z" fill-rule="nonzero"></path><path fill="#000000" d="m463.75702 191.22655q0.171875 -0.234375 0.375 -0.359375q0.21875 -0.125 0.453125 -0.125q0.421875 0 0.6875 0.296875q0.265625 0.28125 0.265625 0.96875l0 1.609375q0 0.6875 -0.265625 0.984375q-0.265625 0.296875 -0.6875 0.296875q-0.375 0 -0.609375 -0.21875q-0.234375 -0.21875 -0.34375 -0.796875q-0.0625 -0.390625 -0.265625 -0.609375q-0.375 -0.40625 -1.0625 -0.65625q-0.671875 -0.25 -1.359375 -0.25q-0.859375 0 -1.578125 0.375q-0.703125 0.359375 -1.25 1.203125q-0.546875 0.828125 -0.546875 1.984375l0 1.234375q0 1.375 0.984375 2.296875q1.0 0.90625 2.78125 0.90625q1.046875 0 1.78125 -0.28125q0.4375 -0.171875 0.921875 -0.65625q0.296875 -0.296875 0.453125 -0.390625q0.171875 -0.09375 0.390625 -0.09375q0.375 0 0.65625 0.296875q0.296875 0.28125 0.296875 0.671875q0 0.390625 -0.390625 0.828125q-0.5625 0.65625 -1.453125 1.03125q-1.203125 0.5 -2.65625 0.5q-1.6875 0 -3.03125 -0.703125q-1.09375 -0.546875 -1.875 -1.75q-0.765625 -1.203125 -0.765625 -2.625l0 -1.296875q0 -1.484375 0.6875 -2.765625q0.6875 -1.28125 1.90625 -1.96875q1.234375 -0.703125 2.609375 -0.703125q0.828125 0 1.546875 0.1875q0.71875 0.1875 1.34375 0.578125zm10.992462 -1.234375l0 7.4375q0.609375 0 0.890625 0.265625q0.296875 0.265625 0.296875 0.671875q0 0.421875 -0.296875 0.703125q-0.296875 0.265625 -0.890625 0.265625l0 0.75q0.609375 0 0.890625 0.28125q0.296875 0.265625 0.296875 0.671875q0 0.421875 -0.296875 0.6875q-0.296875 0.265625 -0.984375 0.265625l-2.546875 0q-0.6875 0 -0.984375 -0.265625q-0.28125 -0.265625 -0.28125 -0.6875q0 -0.421875 0.28125 -0.6875q0.296875 -0.265625 0.984375 -0.265625l0.75 0l0 -0.75l-5.171875 0l0 -1.59375l4.546875 -7.75l2.515625 0zm-1.890625 7.4375l0 -4.671875l-2.765625 4.671875l2.765625 0z" fill-rule="nonzero"></path><path fill="#cfe2f3" d="m571.4934 168.90814l140.81891 0l0 53.66928l-140.81891 0z" fill-rule="nonzero"></path><path stroke="#000000" stroke-width="2.0" stroke-linejoin="round" stroke-linecap="butt" d="m571.4934 168.90814l140.81891 0l0 53.66928l-140.81891 0z" fill-rule="nonzero"></path><path fill="#000000" d="m595.0038 185.55466l0 4.125l2.421875 0q0.609375 0 0.875 0.234375q0.265625 0.234375 0.265625 0.625q0 0.375 -0.265625 0.609375q-0.265625 0.234375 -0.875 0.234375l-5.140625 0q-0.609375 0 -0.875 -0.234375q-0.265625 -0.234375 -0.265625 -0.625q0 -0.375 0.265625 -0.609375q0.265625 -0.234375 0.875 -0.234375l1.015625 0l0 -4.125l-0.8125 0q-0.625 0 -0.890625 -0.234375q-0.25 -0.25 -0.25 -0.625q0 -0.375 0.25 -0.609375q0.265625 -0.234375 0.890625 -0.234375l0.8125 0l0 -0.65625q0 -1.109375 0.828125 -1.84375q0.84375 -0.734375 2.421875 -0.734375q0.703125 0 1.625 0.125q0.9375 0.125 1.1875 0.359375q0.265625 0.234375 0.265625 0.609375q0 0.390625 -0.234375 0.640625q-0.234375 0.234375 -0.5625 0.234375q-0.171875 0 -0.484375 -0.0625q-1.046875 -0.203125 -1.859375 -0.203125q-0.84375 0 -1.171875 0.25q-0.3125 0.25 -0.3125 0.625l0 0.65625l2.625 0q0.609375 0 0.859375 0.234375q0.265625 0.234375 0.265625 0.609375q0 0.375 -0.265625 0.625q-0.25 0.234375 -0.859375 0.234375l-2.625 0zm11.02356 -4.9375l0 1.796875l-2.03125 0l0 -1.796875l2.03125 0zm0.21875 3.234375l0 5.828125l2.046875 0q0.609375 0 0.875 0.234375q0.265625 0.234375 0.265625 0.625q0 0.375 -0.265625 0.609375q-0.265625 0.234375 -0.875 0.234375l-5.78125 0q-0.625 0 -0.890625 -0.234375q-0.25 -0.234375 -0.25 -0.625q0 -0.375 0.25 -0.609375q0.265625 -0.234375 0.890625 -0.234375l2.03125 0l0 -4.125l-1.359375 0q-0.609375 0 -0.875 -0.234375q-0.265625 -0.25 -0.265625 -0.625q0 -0.375 0.265625 -0.609375q0.265625 -0.234375 0.875 -0.234375l3.0625 0zm10.83606 3.609375l2.578125 2.21875q0.46875 0.03125 0.703125 0.265625q0.234375 0.234375 0.234375 0.59375q0 0.375 -0.265625 0.609375q-0.265625 0.234375 -0.875 0.234375l-1.9375 0q-0.609375 0 -0.875 -0.234375q-0.265625 -0.234375 -0.265625 -0.625q0 -0.296875 0.1875 -0.53125q0.1875 -0.234375 0.515625 -0.3125l-1.265625 -1.09375l-1.296875 1.09375q0.390625 0.09375 0.5625 0.3125q0.171875 0.203125 0.171875 0.53125q0 0.390625 -0.265625 0.625q-0.25 0.234375 -0.875 0.234375l-1.90625 0q-0.625 0 -0.890625 -0.234375q-0.25 -0.234375 -0.25 -0.625q0 -0.34375 0.234375 -0.578125q0.234375 -0.234375 0.6875 -0.265625l2.53125 -2.21875l-2.234375 -1.90625q-0.4375 -0.046875 -0.671875 -0.28125q-0.21875 -0.234375 -0.21875 -0.578125q0 -0.375 0.25 -0.609375q0.265625 -0.234375 0.875 -0.234375l1.59375 0q0.625 0 0.875 0.234375q0.265625 0.234375 0.265625 0.59375q0 0.5 -0.46875 0.796875l1.03125 0.859375l1.015625 -0.875q-0.453125 -0.328125 -0.453125 -0.75q0 -0.390625 0.25 -0.625q0.265625 -0.234375 0.890625 -0.234375l1.578125 0q0.609375 0 0.859375 0.234375q0.265625 0.234375 0.265625 0.609375q0 0.34375 -0.234375 0.578125q-0.21875 0.234375 -0.671875 0.28125l-2.234375 1.90625zm9.74231 -6.84375l0 1.796875l-2.03125 0l0 -1.796875l2.03125 0zm0.21875 3.234375l0 5.828125l2.046875 0q0.609375 0 0.875 0.234375q0.265625 0.234375 0.265625 0.625q0 0.375 -0.265625 0.609375q-0.265625 0.234375 -0.875 0.234375l-5.78125 0q-0.625 0 -0.890625 -0.234375q-0.25 -0.234375 -0.25 -0.625q0 -0.375 0.25 -0.609375q0.265625 -0.234375 0.890625 -0.234375l2.03125 0l0 -4.125l-1.359375 0q-0.609375 0 -0.875 -0.234375q-0.265625 -0.25 -0.265625 -0.625q0 -0.375 0.265625 -0.609375q0.265625 -0.234375 0.875 -0.234375l3.0625 0zm7.8361206 0l0 0.5625q0.46875 -0.390625 1.03125 -0.59375q0.5625 -0.203125 1.21875 -0.203125q1.5 0 2.390625 0.9375q0.6875 0.75 0.6875 1.96875l0 3.15625q0.546875 0 0.796875 0.234375q0.265625 0.234375 0.265625 0.625q0 0.375 -0.265625 0.609375q-0.265625 0.234375 -0.875 0.234375l-1.53125 0q-0.625 0 -0.890625 -0.234375q-0.25 -0.234375 -0.25 -0.625q0 -0.375 0.25 -0.609375q0.265625 -0.234375 0.796875 -0.234375l0 -3.21875q0 -0.546875 -0.296875 -0.8125q-0.390625 -0.328125 -1.171875 -0.328125q-0.578125 0 -1.03125 0.234375q-0.4375 0.21875 -1.125 0.96875l0 3.15625q0.65625 0 0.84375 0.125q0.40625 0.25 0.40625 0.734375q0 0.375 -0.265625 0.609375q-0.25 0.234375 -0.859375 0.234375l-1.9375 0q-0.609375 0 -0.875 -0.234375q-0.265625 -0.234375 -0.265625 -0.625q0 -0.453125 0.40625 -0.71875q0.1875 -0.125 0.84375 -0.125l0 -4.125q-0.53125 0 -0.796875 -0.234375q-0.25 -0.25 -0.25 -0.625q0 -0.375 0.25 -0.609375q0.265625 -0.234375 0.890625 -0.234375l1.609375 0zm13.99231 0.5l0 -0.5l2.0 0q0.609375 0 0.875 0.234375q0.265625 0.234375 0.265625 0.609375q0 0.375 -0.265625 0.625q-0.265625 0.234375 -0.875 0.234375l-0.296875 0l0 6.1875q0 0.890625 -0.375 1.5625q-0.375 0.671875 -1.15625 1.140625q-0.78125 0.484375 -1.765625 0.484375l-1.921875 0q-0.609375 0 -0.875 -0.234375q-0.265625 -0.234375 -0.265625 -0.609375q0 -0.375 0.265625 -0.625q0.265625 -0.234375 0.875 -0.234375l1.875 0q0.78125 0 1.203125 -0.421875q0.4375 -0.421875 0.4375 -1.0625l0 -0.828125q-0.5625 0.359375 -1.15625 0.53125q-0.578125 0.1875 -1.1875 0.1875q-1.734375 0 -2.90625 -1.15625q-1.171875 -1.15625 -1.171875 -2.859375q0 -1.703125 1.171875 -2.859375q1.171875 -1.15625 2.90625 -1.15625q0.640625 0 1.21875 0.1875q0.59375 0.1875 1.125 0.5625zm0 3.265625q0 -0.9375 -0.703125 -1.625q-0.6875 -0.6875 -1.65625 -0.6875q-0.96875 0 -1.671875 0.6875q-0.6875 0.6875 -0.6875 1.625q0 0.9375 0.6875 1.625q0.703125 0.6875 1.671875 0.6875q0.96875 0 1.65625 -0.6875q0.703125 -0.6875 0.703125 -1.625zm12.101685 -0.28125l-7.109375 0l0 -1.5625l7.109375 0l0 1.5625zm8.351685 4.046875l0 -0.40625q-0.625 0.34375 -1.40625 0.515625q-0.765625 0.171875 -1.40625 0.171875q-1.359375 0 -2.21875 -0.71875q-0.859375 -0.734375 -0.859375 -1.609375q0 -1.078125 1.09375 -1.984375q1.09375 -0.921875 3.015625 -0.921875q0.78125 0 1.78125 0.15625l0 -0.40625q0 -0.375 -0.328125 -0.609375q-0.3125 -0.25 -1.234375 -0.25q-0.765625 0 -1.96875 0.296875q-0.453125 0.109375 -0.6875 0.109375q-0.34375 0 -0.59375 -0.234375q-0.234375 -0.25 -0.234375 -0.640625q0 -0.203125 0.078125 -0.359375q0.09375 -0.171875 0.234375 -0.265625q0.15625 -0.09375 0.640625 -0.21875q0.625 -0.171875 1.28125 -0.28125q0.65625 -0.109375 1.1875 -0.109375q1.578125 0 2.453125 0.6875q0.875 0.6875 0.875 1.875l0 3.5l0.296875 0q0.609375 0 0.875 0.234375q0.265625 0.234375 0.265625 0.625q0 0.375 -0.265625 0.609375q-0.265625 0.234375 -0.875 0.234375l-2.0 0zm0 -3.046875q-1.015625 -0.203125 -1.875 -0.203125q-1.046875 0 -1.78125 0.515625q-0.46875 0.3125 -0.46875 0.65625q0 0.234375 0.21875 0.390625q0.421875 0.265625 1.140625 0.265625q0.609375 0 1.390625 -0.234375q0.78125 -0.25 1.375 -0.65625l0 -0.734375zm9.492371 -7.71875l0 1.796875l-2.03125 0l0 -1.796875l2.03125 0zm0.21875 3.234375l0 5.828125l2.046875 0q0.609375 0 0.875 0.234375q0.265625 0.234375 0.265625 0.625q0 0.375 -0.265625 0.609375q-0.265625 0.234375 -0.875 0.234375l-5.78125 0q-0.625 0 -0.890625 -0.234375q-0.25 -0.234375 -0.25 -0.625q0 -0.375 0.25 -0.609375q0.265625 -0.234375 0.890625 -0.234375l2.03125 0l0 -4.125l-1.359375 0q-0.609375 0 -0.875 -0.234375q-0.265625 -0.25 -0.265625 -0.625q0 -0.375 0.265625 -0.609375q0.265625 -0.234375 0.875 -0.234375l3.0625 0zm13.132935 3.484375l-7.109375 0l0 -1.5625l7.109375 0l0 1.5625z" fill-rule="nonzero"></path><path fill="#000000" d="m593.2538 201.61716l0 3.625q0.53125 -0.3125 1.078125 -0.46875q0.546875 -0.15625 1.09375 -0.15625q0.890625 0 1.578125 0.3125q0.6875 0.296875 1.140625 0.9375q0.453125 0.640625 0.453125 1.625l0 3.1875q0.640625 0 0.84375 0.125q0.390625 0.265625 0.390625 0.734375q0 0.375 -0.265625 0.609375q-0.25 0.234375 -0.859375 0.234375l-1.9375 0q-0.609375 0 -0.875 -0.234375q-0.25 -0.234375 -0.25 -0.625q0 -0.453125 0.390625 -0.71875q0.203125 -0.125 0.84375 -0.125l0 -3.078125q0 -0.65625 -0.296875 -0.921875q-0.390625 -0.359375 -1.15625 -0.359375q-0.5625 0 -1.0 0.21875q-0.4375 0.21875 -1.171875 0.953125l0 3.1875q0.65625 0 0.84375 0.125q0.40625 0.265625 0.40625 0.734375q0 0.375 -0.265625 0.609375q-0.25 0.234375 -0.859375 0.234375l-1.9375 0q-0.625 0 -0.890625 -0.234375q-0.25 -0.234375 -0.25 -0.625q0 -0.453125 0.40625 -0.71875q0.203125 -0.125 0.84375 -0.125l0 -7.359375l-0.28125 0q-0.625 0 -0.890625 -0.234375q-0.25 -0.234375 -0.25 -0.625q0 -0.375 0.25 -0.609375q0.265625 -0.234375 0.890625 -0.234375l1.984375 0zm16.42981 7.859375l-6.984375 0q0.265625 0.671875 0.9375 1.078125q0.6875 0.40625 1.828125 0.40625q0.953125 0 2.515625 -0.40625q0.65625 -0.171875 0.90625 -0.171875q0.34375 0 0.5625 0.25q0.234375 0.234375 0.234375 0.59375q0 0.328125 -0.25 0.5625q-0.328125 0.3125 -1.625 0.59375q-1.28125 0.28125 -2.46875 0.28125q-2.03125 0 -3.265625 -1.15625q-1.21875 -1.15625 -1.21875 -2.84375q0 -1.796875 1.328125 -2.921875q1.328125 -1.125 3.046875 -1.125q1.03125 0 1.890625 0.375q0.875 0.359375 1.3125 0.78125q0.59375 0.609375 0.984375 1.515625q0.265625 0.640625 0.265625 1.46875l0 0.71875zm-1.890625 -1.703125q-0.390625 -0.734375 -1.03125 -1.09375q-0.625 -0.359375 -1.484375 -0.359375q-0.875 0 -1.5 0.359375q-0.625 0.359375 -1.03125 1.09375l5.046875 0zm11.632935 -2.921875l0 5.828125q0.53125 0 0.78125 0.25q0.265625 0.234375 0.265625 0.609375q0 0.375 -0.265625 0.609375q-0.25 0.234375 -0.859375 0.234375l-1.625 0l0 -0.390625q-0.734375 0.328125 -1.40625 0.5q-0.65625 0.171875 -1.25 0.171875q-0.84375 0 -1.453125 -0.359375q-0.609375 -0.359375 -0.96875 -0.96875q-0.265625 -0.453125 -0.265625 -1.125l0 -3.65625l-0.28125 0q-0.625 0 -0.890625 -0.234375q-0.25 -0.25 -0.25 -0.625q0 -0.375 0.25 -0.609375q0.265625 -0.234375 0.890625 -0.234375l1.984375 0l0 5.0625q0 0.53125 0.265625 0.796875q0.265625 0.25 0.796875 0.25q0.515625 0 1.109375 -0.203125q0.59375 -0.203125 1.46875 -0.734375l0 -3.46875l-0.609375 0q-0.625 0 -0.890625 -0.234375q-0.25 -0.25 -0.25 -0.625q0 -0.375 0.25 -0.609375q0.265625 -0.234375 0.890625 -0.234375l2.3125 0zm6.4298096 0l0 1.0625q1.0625 -0.78125 1.6875 -1.03125q0.625 -0.265625 1.15625 -0.265625q0.828125 0 1.609375 0.625q0.53125 0.40625 0.53125 0.84375q0 0.359375 -0.25 0.625q-0.25 0.25 -0.609375 0.25q-0.3125 0 -0.671875 -0.3125q-0.34375 -0.328125 -0.609375 -0.328125q-0.359375 0 -1.078125 0.453125q-0.703125 0.453125 -1.765625 1.34375l0 2.5625l2.421875 0q0.609375 0 0.875 0.234375q0.265625 0.234375 0.265625 0.625q0 0.375 -0.265625 0.609375q-0.265625 0.234375 -0.875 0.234375l-5.140625 0q-0.609375 0 -0.875 -0.234375q-0.265625 -0.234375 -0.265625 -0.625q0 -0.375 0.265625 -0.609375q0.265625 -0.234375 0.875 -0.234375l1.015625 0l0 -4.125l-0.609375 0q-0.625 0 -0.890625 -0.234375q-0.25 -0.25 -0.25 -0.625q0 -0.375 0.25 -0.609375q0.265625 -0.234375 0.890625 -0.234375l2.3125 0zm11.367371 -3.234375l0 1.796875l-2.03125 0l0 -1.796875l2.03125 0zm0.21875 3.234375l0 5.828125l2.046875 0q0.609375 0 0.875 0.234375q0.265625 0.234375 0.265625 0.625q0 0.375 -0.265625 0.609375q-0.265625 0.234375 -0.875 0.234375l-5.78125 0q-0.625 0 -0.890625 -0.234375q-0.25 -0.234375 -0.25 -0.625q0 -0.375 0.25 -0.609375q0.265625 -0.234375 0.890625 -0.234375l2.03125 0l0 -4.125l-1.359375 0q-0.609375 0 -0.875 -0.234375q-0.265625 -0.25 -0.265625 -0.625q0 -0.375 0.265625 -0.609375q0.265625 -0.234375 0.875 -0.234375l3.0625 0zm11.39856 1.984375q-0.40625 -0.25 -0.875 -0.375q-0.453125 -0.140625 -0.953125 -0.140625q-0.984375 0 -1.5625 0.328125q-0.265625 0.140625 -0.265625 0.3125q0 0.1875 0.359375 0.359375q0.265625 0.140625 1.1875 0.265625q1.6875 0.234375 2.359375 0.46875q0.859375 0.296875 1.328125 0.90625q0.484375 0.609375 0.484375 1.28125q0 0.90625 -0.8125 1.53125q-1.140625 0.890625 -2.984375 0.890625q-0.75 0 -1.375 -0.140625q-0.625 -0.125 -1.140625 -0.375q-0.125 0.109375 -0.265625 0.171875q-0.140625 0.046875 -0.296875 0.046875q-0.390625 0 -0.640625 -0.25q-0.234375 -0.265625 -0.234375 -0.875l0 -0.578125q0 -0.609375 0.234375 -0.875q0.25 -0.265625 0.625 -0.265625q0.3125 0 0.515625 0.171875q0.203125 0.171875 0.328125 0.59375q0.390625 0.328125 0.9375 0.5q0.546875 0.171875 1.25 0.171875q1.171875 0 1.828125 -0.375q0.296875 -0.171875 0.296875 -0.375q0 -0.328125 -0.4375 -0.546875q-0.4375 -0.21875 -1.8125 -0.375q-2.046875 -0.203125 -2.734375 -0.828125q-0.703125 -0.609375 -0.703125 -1.484375q0 -0.921875 0.78125 -1.53125q1.046875 -0.828125 2.734375 -0.828125q0.59375 0 1.140625 0.125q0.546875 0.109375 1.03125 0.328125q0.15625 -0.109375 0.296875 -0.15625q0.140625 -0.0625 0.25 -0.0625q0.359375 0 0.59375 0.265625q0.234375 0.25 0.234375 0.859375l0 0.421875q0 0.5625 -0.140625 0.75q-0.265625 0.390625 -0.71875 0.390625q-0.3125 0 -0.546875 -0.1875q-0.234375 -0.203125 -0.296875 -0.515625zm8.14856 -0.28125l0 3.40625q0 0.546875 0.21875 0.71875q0.34375 0.28125 1.25 0.28125q1.296875 0 2.40625 -0.5625q0.421875 -0.21875 0.65625 -0.21875q0.328125 0 0.578125 0.25q0.25 0.25 0.25 0.609375q0 0.328125 -0.265625 0.578125q-0.40625 0.390625 -1.609375 0.71875q-1.203125 0.328125 -2.015625 0.328125q-1.59375 0 -2.390625 -0.6875q-0.78125 -0.6875 -0.78125 -1.6875l0 -3.734375l-0.625 0q-0.609375 0 -0.875 -0.234375q-0.25 -0.25 -0.25 -0.625q0 -0.375 0.25 -0.609375q0.265625 -0.234375 0.875 -0.234375l0.625 0l0 -1.546875q0 -0.609375 0.234375 -0.859375q0.234375 -0.265625 0.609375 -0.265625q0.375 0 0.609375 0.265625q0.25 0.25 0.25 0.859375l0 1.546875l3.140625 0q0.609375 0 0.875 0.234375q0.265625 0.234375 0.265625 0.609375q0 0.375 -0.265625 0.625q-0.265625 0.234375 -0.875 0.234375l-3.140625 0zm11.42981 -4.9375l0 1.796875l-2.03125 0l0 -1.796875l2.03125 0zm0.21875 3.234375l0 5.828125l2.046875 0q0.609375 0 0.875 0.234375q0.265625 0.234375 0.265625 0.625q0 0.375 -0.265625 0.609375q-0.265625 0.234375 -0.875 0.234375l-5.78125 0q-0.625 0 -0.890625 -0.234375q-0.25 -0.234375 -0.25 -0.625q0 -0.375 0.25 -0.609375q0.265625 -0.234375 0.890625 -0.234375l2.03125 0l0 -4.125l-1.359375 0q-0.609375 0 -0.875 -0.234375q-0.265625 -0.25 -0.265625 -0.625q0 -0.375 0.265625 -0.609375q0.265625 -0.234375 0.875 -0.234375l3.0625 0zm12.211121 0.296875q0.3125 -0.28125 0.640625 -0.28125q0.359375 0 0.59375 0.265625q0.234375 0.25 0.234375 0.859375l0 1.09375q0 0.609375 -0.234375 0.875q-0.234375 0.25 -0.609375 0.25q-0.359375 0 -0.59375 -0.1875q-0.171875 -0.15625 -0.28125 -0.609375q-0.09375 -0.46875 -0.484375 -0.6875q-0.671875 -0.40625 -1.71875 -0.40625q-1.203125 0 -1.9375 0.703125q-0.71875 0.703125 -0.71875 1.796875q0 0.984375 0.703125 1.5625q0.703125 0.578125 2.3125 0.578125q1.0625 0 1.734375 -0.21875q0.40625 -0.125 0.765625 -0.4375q0.359375 -0.328125 0.640625 -0.328125q0.34375 0 0.59375 0.265625q0.265625 0.25 0.265625 0.59375q0 0.5625 -0.78125 1.078125q-1.140625 0.75 -3.34375 0.75q-1.984375 0 -3.09375 -0.828125q-1.484375 -1.09375 -1.484375 -3.015625q0 -1.8125 1.203125 -3.0q1.21875 -1.203125 3.171875 -1.203125q0.703125 0 1.296875 0.140625q0.609375 0.125 1.125 0.390625zm9.58606 1.6875q-0.40625 -0.25 -0.875 -0.375q-0.453125 -0.140625 -0.953125 -0.140625q-0.984375 0 -1.5625 0.328125q-0.265625 0.140625 -0.265625 0.3125q0 0.1875 0.359375 0.359375q0.265625 0.140625 1.1875 0.265625q1.6875 0.234375 2.359375 0.46875q0.859375 0.296875 1.328125 0.90625q0.484375 0.609375 0.484375 1.28125q0 0.90625 -0.8125 1.53125q-1.140625 0.890625 -2.984375 0.890625q-0.75 0 -1.375 -0.140625q-0.625 -0.125 -1.140625 -0.375q-0.125 0.109375 -0.265625 0.171875q-0.140625 0.046875 -0.296875 0.046875q-0.390625 0 -0.640625 -0.25q-0.234375 -0.265625 -0.234375 -0.875l0 -0.578125q0 -0.609375 0.234375 -0.875q0.25 -0.265625 0.625 -0.265625q0.3125 0 0.515625 0.171875q0.203125 0.171875 0.328125 0.59375q0.390625 0.328125 0.9375 0.5q0.546875 0.171875 1.25 0.171875q1.171875 0 1.828125 -0.375q0.296875 -0.171875 0.296875 -0.375q0 -0.328125 -0.4375 -0.546875q-0.4375 -0.21875 -1.8125 -0.375q-2.046875 -0.203125 -2.734375 -0.828125q-0.703125 -0.609375 -0.703125 -1.484375q0 -0.921875 0.78125 -1.53125q1.046875 -0.828125 2.734375 -0.828125q0.59375 0 1.140625 0.125q0.546875 0.109375 1.03125 0.328125q0.15625 -0.109375 0.296875 -0.15625q0.140625 -0.0625 0.25 -0.0625q0.359375 0 0.59375 0.265625q0.234375 0.25 0.234375 0.859375l0 0.421875q0 0.5625 -0.140625 0.75q-0.265625 0.390625 -0.71875 0.390625q-0.3125 0 -0.546875 -0.1875q-0.234375 -0.203125 -0.296875 -0.515625z" fill-rule="nonzero"></path><path fill="#000000" fill-opacity="0.0" d="m253.81102 139.60104c0 27.795288 25.291336 55.59056 50.582687 55.59056" fill-rule="nonzero"></path><path stroke="#000000" stroke-width="2.0" stroke-linejoin="round" stroke-linecap="butt" d="m255.30536 151.50764l0.09474182 0.38008118c0.05429077 0.21237183 0.10990906 0.42448425 0.16682434 0.636322c0.22769165 0.8474121 0.4762268 1.690567 0.7448425 2.5286255c0.5372009 1.676117 1.1546326 3.3319092 1.8461914 4.9605255c2.7662659 6.5145264 6.7180176 12.594742 11.460144 17.80635c9.484253 10.423233 22.129913 17.372055 34.775604 17.372055" fill-rule="evenodd"></path><path fill="#000000" stroke="#000000" stroke-width="2.0" stroke-linecap="butt" d="m258.58313 151.09627l-4.4080048 -8.594177l-2.1475067 9.416931z" fill-rule="evenodd"></path></g></svg>

