<?xml version="1.0" standalone="yes"?>

<svg version="1.1" viewBox="0.0 0.0 826.0 179.0" fill="none" stroke="none" stroke-linecap="square" stroke-miterlimit="10" xmlns="http://www.w3.org/2000/svg" xmlns:xlink="http://www.w3.org/1999/xlink"><clipPath id="p.0"><path d="m0 0l826.0 0l0 179.0l-826.0 0l0 -179.0z" clip-rule="nonzero"></path></clipPath><g clip-path="url(#p.0)"><path fill="#000000" fill-opacity="0.0" d="m0 0l826.5617 0l0 179.05511l-826.5617 0z" fill-rule="nonzero"></path><path fill="#0092f8" fill-opacity="0.6731" d="m685.34644 130.20735l0 0c0 15.637924 -12.677002 28.314957 -28.314941 28.314957l0 0c-7.5095825 0 -14.711609 -2.9831696 -20.021729 -8.293259c-5.3100586 -5.310089 -8.293213 -12.5121 -8.293213 -20.021698l0 0c0 -15.637924 12.677002 -28.314964 28.314941 -28.314964l0 0c15.637939 0 28.314941 12.67704 28.314941 28.314964z" fill-rule="nonzero"></path><path stroke="#000000" stroke-width="2.0" stroke-linejoin="round" stroke-linecap="butt" d="m685.34644 130.20735l0 0c0 15.637924 -12.677002 28.314957 -28.314941 28.314957l0 0c-7.5095825 0 -14.711609 -2.9831696 -20.021729 -8.293259c-5.3100586 -5.310089 -8.293213 -12.5121 -8.293213 -20.021698l0 0c0 -15.637924 12.677002 -28.314964 28.314941 -28.314964l0 0c15.637939 0 28.314941 12.67704 28.314941 28.314964z" fill-rule="nonzero"></path><path fill="#000000" fill-opacity="0.0" d="m628.71655 131.0105l-76.91339 -0.5354309" fill-rule="nonzero"></path><path stroke="#000000" stroke-width="2.0" stroke-linejoin="round" stroke-linecap="butt" d="m628.71655 131.0105l-64.9137 -0.45188904" fill-rule="evenodd"></path><path fill="#000000" stroke="#000000" stroke-width="2.0" stroke-linecap="butt" d="m563.82587 127.25522l-9.098999 3.2402039l9.0529785 3.366562z" fill-rule="evenodd"></path><path fill="#0092f8" fill-opacity="0.6731" d="m551.80316 130.47507l0 0c0 15.637924 -12.677063 28.314957 -28.315002 28.314957l0 0c-7.5095825 0 -14.711578 -2.9831696 -20.021667 -8.293259c-5.310089 -5.310089 -8.293274 -12.5121 -8.293274 -20.021698l0 0c0 -15.637924 12.677063 -28.314964 28.314941 -28.314964l0 0c15.637939 0 28.315002 12.67704 28.315002 28.314964z" fill-rule="nonzero"></path><path stroke="#000000" stroke-width="2.0" stroke-linejoin="round" stroke-linecap="butt" d="m551.80316 130.47507l0 0c0 15.637924 -12.677063 28.314957 -28.315002 28.314957l0 0c-7.5095825 0 -14.711578 -2.9831696 -20.021667 -8.293259c-5.310089 -5.310089 -8.293274 -12.5121 -8.293274 -20.021698l0 0c0 -15.637924 12.677063 -28.314964 28.314941 -28.314964l0 0c15.637939 0 28.315002 12.67704 28.315002 28.314964z" fill-rule="nonzero"></path><path fill="#000000" fill-opacity="0.0" d="m495.17322 130.74278l-76.91336 -0.5354309" fill-rule="nonzero"></path><path stroke="#000000" stroke-width="2.0" stroke-linejoin="round" stroke-linecap="butt" d="m495.17322 130.74278l-64.913666 -0.45188904" fill-rule="evenodd"></path><path fill="#000000" stroke="#000000" stroke-width="2.0" stroke-linecap="butt" d="m430.28256 126.9875l-9.098999 3.2402039l9.0529785 3.366562z" fill-rule="evenodd"></path><path fill="#0092f8" fill-opacity="0.6731" d="m418.25986 130.20735l0 0c0 15.637924 -12.677063 28.314957 -28.314972 28.314957l0 0c-7.509613 0 -14.711609 -2.9831696 -20.021698 -8.293259c-5.310089 -5.310089 -8.293274 -12.5121 -8.293274 -20.021698l0 0c0 -15.637924 12.677032 -28.314964 28.314972 -28.314964l0 0c15.637909 0 28.314972 12.67704 28.314972 28.314964z" fill-rule="nonzero"></path><path stroke="#000000" stroke-width="2.0" stroke-linejoin="round" stroke-linecap="butt" d="m418.25986 130.20735l0 0c0 15.637924 -12.677063 28.314957 -28.314972 28.314957l0 0c-7.509613 0 -14.711609 -2.9831696 -20.021698 -8.293259c-5.310089 -5.310089 -8.293274 -12.5121 -8.293274 -20.021698l0 0c0 -15.637924 12.677032 -28.314964 28.314972 -28.314964l0 0c15.637909 0 28.314972 12.67704 28.314972 28.314964z" fill-rule="nonzero"></path><path fill="#0092f8" fill-opacity="0.6731" d="m284.71652 130.07349l0 0c0 15.637924 -12.677032 28.314972 -28.314941 28.314972l0 0c-7.509598 0 -14.711624 -2.9831848 -20.021713 -8.293274c-5.310074 -5.310074 -8.293259 -12.5121 -8.293259 -20.021698l0 0c0 -15.637917 12.677048 -28.314957 28.314972 -28.314957l0 0c15.637909 0 28.314941 12.67704 28.314941 28.314957z" fill-rule="nonzero"></path><path stroke="#000000" stroke-width="2.0" stroke-linejoin="round" stroke-linecap="butt" d="m284.71652 130.07349l0 0c0 15.637924 -12.677032 28.314972 -28.314941 28.314972l0 0c-7.509598 0 -14.711624 -2.9831848 -20.021713 -8.293274c-5.310074 -5.310074 -8.293259 -12.5121 -8.293259 -20.021698l0 0c0 -15.637917 12.677048 -28.314957 28.314972 -28.314957l0 0c15.637909 0 28.314941 12.67704 28.314941 28.314957z" fill-rule="nonzero"></path><path fill="#000000" fill-opacity="0.0" d="m361.6299 130.60892l-76.91339 -0.5354309" fill-rule="nonzero"></path><path stroke="#000000" stroke-width="2.0" stroke-linejoin="round" stroke-linecap="butt" d="m361.6299 130.60892l-64.913666 -0.45188904" fill-rule="evenodd"></path><path fill="#000000" stroke="#000000" stroke-width="2.0" stroke-linecap="butt" d="m296.73923 126.853645l-9.0989685 3.2401962l9.0529785 3.3665771z" fill-rule="evenodd"></path><path fill="#000000" fill-opacity="0.0" d="m228.08661 130.87665l-76.913376 -0.53544617" fill-rule="nonzero"></path><path stroke="#000000" stroke-width="2.0" stroke-linejoin="round" stroke-linecap="butt" d="m228.08661 130.87665l-64.913666 -0.4519043" fill-rule="evenodd"></path><path fill="#000000" stroke="#000000" stroke-width="2.0" stroke-linecap="butt" d="m163.19594 127.12136l-9.0989685 3.2401962l9.0529785 3.3665771z" fill-rule="evenodd"></path><path fill="#0092f8" fill-opacity="0.6731" d="m151.17323 130.3412l0 0c0 15.637924 -12.677048 28.314972 -28.314964 28.314972l0 0c-7.509598 0 -14.7116165 -2.9831848 -20.021698 -8.293259c-5.310089 -5.310089 -8.293266 -12.5121155 -8.293266 -20.021713l0 0c0 -15.637917 12.67704 -28.314957 28.314964 -28.314957l0 0c15.637917 0 28.314964 12.67704 28.314964 28.314957z" fill-rule="nonzero"></path><path stroke="#000000" stroke-width="2.0" stroke-linejoin="round" stroke-linecap="butt" d="m151.17323 130.3412l0 0c0 15.637924 -12.677048 28.314972 -28.314964 28.314972l0 0c-7.509598 0 -14.7116165 -2.9831848 -20.021698 -8.293259c-5.310089 -5.310089 -8.293266 -12.5121155 -8.293266 -20.021713l0 0c0 -15.637917 12.67704 -28.314957 28.314964 -28.314957l0 0c15.637917 0 28.314964 12.67704 28.314964 28.314957z" fill-rule="nonzero"></path><path fill="#000000" fill-opacity="0.0" d="m94.543304 130.60892l-76.91338 -0.5354309" fill-rule="nonzero"></path><path stroke="#000000" stroke-width="2.0" stroke-linejoin="round" stroke-linecap="butt" d="m94.543304 130.60892l-64.91367 -0.45188904" fill-rule="evenodd"></path><path fill="#000000" stroke="#000000" stroke-width="2.0" stroke-linecap="butt" d="m29.652626 126.853645l-9.09897 3.2401962l9.0529785 3.3665771z" fill-rule="evenodd"></path><path fill="#000000" fill-opacity="0.0" d="m730.1496 60.36483l-52.37793 49.16535" fill-rule="nonzero"></path><path stroke="#000000" stroke-width="2.0" stroke-linejoin="round" stroke-linecap="butt" d="m730.1496 60.36483l-43.6286 40.95263" fill-rule="evenodd"></path><path fill="#000000" stroke="#000000" stroke-width="2.0" stroke-linecap="butt" d="m684.26013 98.90887l-4.3566895 8.620285l8.878418 -3.8030853z" fill-rule="evenodd"></path><path fill="#cfe2f3" d="m685.34644 16.566929l127.055115 0l0 43.77953l-127.055115 0z" fill-rule="nonzero"></path><path stroke="#000000" stroke-width="2.0" stroke-linejoin="round" stroke-linecap="butt" d="m685.34644 16.566929l127.055115 0l0 43.77953l-127.055115 0z" fill-rule="nonzero"></path><path fill="#000000" d="m718.0529 36.954815l0 0.53125q0.46875 -0.453125 0.84375 -0.625q0.375 -0.171875 0.859375 -0.171875q0.421875 0 0.828125 0.203125q0.40625 0.203125 0.796875 0.609375q0.5 -0.40625 1.0 -0.59375q0.5 -0.203125 1.03125 -0.203125q1.0625 0 1.71875 0.5625q0.875 0.75 0.875 1.953125l0 4.25q0.59375 0 0.875 0.28125q0.296875 0.265625 0.296875 0.671875q0 0.421875 -0.296875 0.6875q-0.28125 0.265625 -0.96875 0.265625l-1.8125 0l0 -6.0q0 -0.4375 -0.15625 -0.59375q-0.15625 -0.171875 -0.484375 -0.171875q-0.3125 0 -0.578125 0.15625q-0.34375 0.234375 -0.84375 0.875l0 3.828125q0.59375 0 0.875 0.28125q0.296875 0.265625 0.296875 0.671875q0 0.421875 -0.296875 0.6875q-0.28125 0.265625 -0.96875 0.265625l-1.796875 0l0 -6.0q0 -0.421875 -0.171875 -0.59375q-0.15625 -0.171875 -0.484375 -0.171875q-0.328125 0 -0.65625 0.203125q-0.328125 0.203125 -0.78125 0.828125l0 3.828125q0.59375 0 0.875 0.28125q0.296875 0.265625 0.296875 0.671875q0 0.421875 -0.296875 0.6875q-0.28125 0.265625 -0.96875 0.265625l-1.71875 0q-0.6875 0 -0.96875 -0.265625q-0.296875 -0.265625 -0.296875 -0.6875q0 -0.421875 0.296875 -0.6875q0.28125 -0.265625 0.875 -0.265625l0 -4.609375q-0.59375 0 -0.875 -0.265625q-0.296875 -0.28125 -0.296875 -0.703125q0 -0.40625 0.296875 -0.671875q0.28125 -0.265625 0.96875 -0.265625l1.8125 0zm15.836182 8.421875l0 -0.453125q-0.703125 0.390625 -1.578125 0.578125q-0.859375 0.1875 -1.5625 0.1875q-1.53125 0 -2.484375 -0.8125q-0.953125 -0.8125 -0.953125 -1.796875q0 -1.1875 1.21875 -2.203125q1.21875 -1.03125 3.375 -1.03125q0.859375 0 1.984375 0.171875l0 -0.453125q0 -0.421875 -0.359375 -0.6875q-0.359375 -0.265625 -1.390625 -0.265625q-0.84375 0 -2.203125 0.328125q-0.5 0.125 -0.765625 0.125q-0.390625 0 -0.65625 -0.265625q-0.265625 -0.28125 -0.265625 -0.71875q0 -0.234375 0.09375 -0.40625q0.09375 -0.1875 0.265625 -0.28125q0.171875 -0.109375 0.703125 -0.265625q0.703125 -0.1875 1.421875 -0.296875q0.734375 -0.125 1.328125 -0.125q1.78125 0 2.75 0.765625q0.984375 0.765625 0.984375 2.09375l0 3.90625l0.328125 0q0.6875 0 0.96875 0.265625q0.296875 0.265625 0.296875 0.6875q0 0.421875 -0.296875 0.6875q-0.28125 0.265625 -0.96875 0.265625l-2.234375 0zm0 -3.40625q-1.140625 -0.21875 -2.09375 -0.21875q-1.171875 0 -2.0 0.5625q-0.515625 0.359375 -0.515625 0.734375q0 0.265625 0.25 0.4375q0.453125 0.296875 1.265625 0.296875q0.6875 0 1.546875 -0.265625q0.875 -0.265625 1.546875 -0.734375l0 -0.8125zm11.539368 -2.796875q-0.453125 -0.28125 -0.96875 -0.421875q-0.515625 -0.140625 -1.0625 -0.140625q-1.109375 0 -1.75 0.359375q-0.296875 0.15625 -0.296875 0.34375q0 0.203125 0.390625 0.40625q0.296875 0.15625 1.328125 0.296875q1.890625 0.25 2.640625 0.515625q0.96875 0.34375 1.5 1.03125q0.53125 0.671875 0.53125 1.421875q0 1.015625 -0.90625 1.703125q-1.28125 1.0 -3.34375 1.0q-0.828125 0 -1.53125 -0.15625q-0.703125 -0.140625 -1.28125 -0.421875q-0.140625 0.125 -0.296875 0.1875q-0.15625 0.0625 -0.328125 0.0625q-0.4375 0 -0.703125 -0.28125q-0.265625 -0.296875 -0.265625 -0.984375l0 -0.640625q0 -0.6875 0.265625 -0.96875q0.265625 -0.296875 0.6875 -0.296875q0.34375 0 0.5625 0.1875q0.234375 0.1875 0.375 0.65625q0.4375 0.375 1.046875 0.5625q0.609375 0.1875 1.40625 0.1875q1.3125 0 2.03125 -0.40625q0.34375 -0.203125 0.34375 -0.4375q0 -0.359375 -0.484375 -0.609375q-0.5 -0.234375 -2.03125 -0.40625q-2.296875 -0.234375 -3.0625 -0.921875q-0.78125 -0.6875 -0.78125 -1.671875q0 -1.015625 0.875 -1.703125q1.15625 -0.921875 3.0625 -0.921875q0.65625 0 1.265625 0.125q0.609375 0.125 1.15625 0.375q0.171875 -0.125 0.328125 -0.1875q0.15625 -0.0625 0.28125 -0.0625q0.390625 0 0.65625 0.296875q0.265625 0.28125 0.265625 0.96875l0 0.46875q0 0.625 -0.15625 0.84375q-0.296875 0.421875 -0.8125 0.421875q-0.34375 0 -0.609375 -0.203125q-0.25 -0.21875 -0.328125 -0.578125zm8.679932 -0.3125l0 3.8125q0 0.609375 0.25 0.796875q0.390625 0.3125 1.390625 0.3125q1.453125 0 2.6875 -0.625q0.46875 -0.234375 0.75 -0.234375q0.359375 0 0.625 0.28125q0.28125 0.265625 0.28125 0.671875q0 0.375 -0.296875 0.640625q-0.453125 0.4375 -1.796875 0.8125q-1.328125 0.359375 -2.25 0.359375q-1.765625 0 -2.65625 -0.765625q-0.890625 -0.765625 -0.890625 -1.890625l0 -4.171875l-0.6875 0q-0.6875 0 -0.984375 -0.265625q-0.28125 -0.265625 -0.28125 -0.703125q0 -0.40625 0.28125 -0.671875q0.296875 -0.265625 0.984375 -0.265625l0.6875 0l0 -1.71875q0 -0.6875 0.265625 -0.96875q0.265625 -0.296875 0.6875 -0.296875q0.421875 0 0.6875 0.296875q0.265625 0.28125 0.265625 0.96875l0 1.71875l3.515625 0q0.6875 0 0.96875 0.265625q0.296875 0.265625 0.296875 0.6875q0 0.421875 -0.296875 0.6875q-0.28125 0.265625 -0.96875 0.265625l-3.515625 0zm16.429932 3.265625l-7.796875 0q0.296875 0.75 1.046875 1.203125q0.765625 0.453125 2.046875 0.453125q1.0625 0 2.8125 -0.453125q0.734375 -0.1875 1.0 -0.1875q0.390625 0 0.640625 0.265625q0.265625 0.265625 0.265625 0.671875q0 0.375 -0.28125 0.640625q-0.375 0.34375 -1.8125 0.65625q-1.4375 0.3125 -2.765625 0.3125q-2.28125 0 -3.65625 -1.28125q-1.359375 -1.296875 -1.359375 -3.1875q0 -2.0 1.484375 -3.25q1.484375 -1.265625 3.40625 -1.265625q1.15625 0 2.125 0.40625q0.96875 0.40625 1.453125 0.875q0.65625 0.6875 1.09375 1.703125q0.296875 0.703125 0.296875 1.640625l0 0.796875zm-2.09375 -1.90625q-0.4375 -0.8125 -1.15625 -1.203125q-0.703125 -0.40625 -1.671875 -0.40625q-0.96875 0 -1.671875 0.40625q-0.703125 0.390625 -1.140625 1.203125l5.640625 0zm8.133057 -3.265625l0 1.1875q1.1875 -0.859375 1.875 -1.140625q0.703125 -0.296875 1.296875 -0.296875q0.9375 0 1.796875 0.6875q0.59375 0.453125 0.59375 0.9375q0 0.40625 -0.28125 0.703125q-0.28125 0.28125 -0.671875 0.28125q-0.359375 0 -0.75 -0.34375q-0.390625 -0.359375 -0.6875 -0.359375q-0.40625 0 -1.203125 0.5q-0.78125 0.5 -1.96875 1.5l0 2.859375l2.703125 0q0.6875 0 0.96875 0.265625q0.296875 0.265625 0.296875 0.6875q0 0.421875 -0.296875 0.6875q-0.28125 0.265625 -0.96875 0.265625l-5.75 0q-0.671875 0 -0.96875 -0.265625q-0.296875 -0.265625 -0.296875 -0.6875q0 -0.421875 0.296875 -0.6875q0.296875 -0.265625 0.96875 -0.265625l1.140625 0l0 -4.609375l-0.6875 0q-0.6875 0 -0.984375 -0.265625q-0.28125 -0.265625 -0.28125 -0.703125q0 -0.40625 0.28125 -0.671875q0.296875 -0.265625 0.984375 -0.265625l2.59375 0z" fill-rule="nonzero"></path><path fill="#000000" fill-opacity="0.0" d="m99.69292 111.91601l46.330704 0l0 36.314964l-46.330704 0z" fill-rule="nonzero"></path><path fill="#000000" d="m120.3502 126.22787q0.171875 -0.234375 0.375 -0.359375q0.21875 -0.125 0.453125 -0.125q0.421875 0 0.6875 0.296875q0.265625 0.28125 0.265625 0.96875l0 1.6093674q0 0.6875 -0.265625 0.984375q-0.265625 0.296875 -0.6875 0.296875q-0.375 0 -0.609375 -0.21875q-0.234375 -0.21875 -0.34375 -0.796875q-0.0625 -0.390625 -0.265625 -0.609375q-0.375 -0.40624237 -1.0625 -0.6562424q-0.671875 -0.25 -1.359375 -0.25q-0.859375 0 -1.578125 0.375q-0.703125 0.35936737 -1.25 1.2031174q-0.546875 0.828125 -0.546875 1.984375l0 1.234375q0 1.375 0.984375 2.296875q1.0 0.90625 2.78125 0.90625q1.046875 0 1.78125 -0.28125q0.4375 -0.171875 0.921875 -0.65625q0.296875 -0.296875 0.453125 -0.390625q0.171875 -0.09375 0.390625 -0.09375q0.375 0 0.65625 0.296875q0.296875 0.28125 0.296875 0.671875q0 0.390625 -0.390625 0.828125q-0.5625 0.65625 -1.453125 1.03125q-1.203125 0.5 -2.65625 0.5q-1.6875 0 -3.03125 -0.703125q-1.09375 -0.546875 -1.875 -1.75q-0.765625 -1.203125 -0.765625 -2.625l0 -1.296875q0 -1.484375 0.6875 -2.765625q0.6875 -1.2812424 1.90625 -1.9687424q1.234375 -0.703125 2.609375 -0.703125q0.828125 0 1.546875 0.1875q0.71875 0.1875 1.34375 0.578125zm12.367455 3.7031174l0 2.09375q0 1.84375 -1.078125 3.546875q-1.078125 1.703125 -3.0625 1.703125q-1.1562576 0 -1.9531326 -0.5q-0.78125 -0.515625 -1.5 -1.875q-0.703125 -1.359375 -0.703125 -2.875l0 -2.09375q0 -1.84375 1.0625 -3.5468674q1.0625 -1.703125 3.0625076 -1.703125q1.140625 0 1.9375 0.5q0.796875 0.5 1.515625 1.859375q0.71875 1.3593674 0.71875 2.8906174zm-1.921875 0q0 -1.546875 -0.859375 -2.7031174q-0.484375 -0.640625 -1.375 -0.640625q-0.8750076 0 -1.4218826 0.703125q-0.828125 1.0624924 -0.828125 2.6406174l0 2.09375q0 1.546875 0.875 2.703125q0.484375 0.640625 1.3906326 0.640625q0.84375 0 1.390625 -0.703125q0.828125 -1.0625 0.828125 -2.640625l0 -2.09375z" fill-rule="nonzero"></path><path fill="#000000" fill-opacity="0.0" d="m233.23622 112.585304l46.330704 0l0 36.314964l-46.330704 0z" fill-rule="nonzero"></path><path fill="#000000" d="m253.89351 126.897156q0.171875 -0.234375 0.375 -0.359375q0.21875 -0.125 0.453125 -0.125q0.421875 0 0.6875 0.296875q0.265625 0.28125 0.265625 0.96875l0 1.609375q0 0.6875 -0.265625 0.984375q-0.265625 0.296875 -0.6875 0.296875q-0.375 0 -0.609375 -0.21875q-0.234375 -0.21875 -0.34375 -0.796875q-0.0625 -0.390625 -0.265625 -0.609375q-0.375 -0.40625 -1.0625 -0.65625q-0.671875 -0.25 -1.359375 -0.25q-0.859375 0 -1.578125 0.375q-0.703125 0.359375 -1.25 1.203125q-0.546875 0.828125 -0.546875 1.984375l0 1.234375q0 1.375 0.984375 2.296875q1.0 0.90625 2.78125 0.90625q1.046875 0 1.78125 -0.28125q0.4375 -0.171875 0.921875 -0.65625q0.296875 -0.296875 0.453125 -0.390625q0.171875 -0.09375 0.390625 -0.09375q0.375 0 0.65625 0.296875q0.296875 0.28125 0.296875 0.671875q0 0.390625 -0.390625 0.828125q-0.5625 0.65625 -1.453125 1.03125q-1.203125 0.5 -2.65625 0.5q-1.6875 0 -3.03125 -0.703125q-1.09375 -0.546875 -1.875 -1.75q-0.765625 -1.203125 -0.765625 -2.625l0 -1.296875q0 -1.484375 0.6875 -2.765625q0.6875 -1.28125 1.90625 -1.96875q1.234375 -0.703125 2.609375 -0.703125q0.828125 0 1.546875 0.1875q0.71875 0.1875 1.34375 0.578125zm9.179947 -1.546875l0 10.40625l1.921875 0q0.6875 0 0.96875 0.265625q0.296875 0.265625 0.296875 0.6875q0 0.421875 -0.296875 0.6875q-0.28125 0.265625 -0.96875 0.265625l-5.75 0q-0.6875 0 -0.984375 -0.265625q-0.28125 -0.265625 -0.28125 -0.6875q0 -0.421875 0.28125 -0.6875q0.296875 -0.265625 0.984375 -0.265625l1.921875 0l0 -7.921875l-1.6875 0.4375q-0.421875 0.109375 -0.625 0.109375q-0.359375 0 -0.625 -0.28125q-0.265625 -0.296875 -0.265625 -0.703125q0 -0.390625 0.1875 -0.609375q0.203125 -0.21875 0.828125 -0.375l4.09375 -1.0625z" fill-rule="nonzero"></path><path fill="#000000" fill-opacity="0.0" d="m366.77954 112.585304l46.33069 0l0 36.314964l-46.33069 0z" fill-rule="nonzero"></path><path fill="#000000" d="m387.4368 126.897156q0.171875 -0.234375 0.375 -0.359375q0.21875 -0.125 0.453125 -0.125q0.421875 0 0.6875 0.296875q0.265625 0.28125 0.265625 0.96875l0 1.609375q0 0.6875 -0.265625 0.984375q-0.265625 0.296875 -0.6875 0.296875q-0.375 0 -0.609375 -0.21875q-0.234375 -0.21875 -0.34375 -0.796875q-0.0625 -0.390625 -0.265625 -0.609375q-0.375 -0.40625 -1.0625 -0.65625q-0.671875 -0.25 -1.359375 -0.25q-0.859375 0 -1.578125 0.375q-0.703125 0.359375 -1.25 1.203125q-0.546875 0.828125 -0.546875 1.984375l0 1.234375q0 1.375 0.984375 2.296875q1.0 0.90625 2.78125 0.90625q1.046875 0 1.78125 -0.28125q0.4375 -0.171875 0.921875 -0.65625q0.296875 -0.296875 0.453125 -0.390625q0.171875 -0.09375 0.390625 -0.09375q0.375 0 0.65625 0.296875q0.296875 0.28125 0.296875 0.671875q0 0.390625 -0.390625 0.828125q-0.5625 0.65625 -1.453125 1.03125q-1.203125 0.5 -2.65625 0.5q-1.6875 0 -3.03125 -0.703125q-1.09375 -0.546875 -1.875 -1.75q-0.765625 -1.203125 -0.765625 -2.625l0 -1.296875q0 -1.484375 0.6875 -2.765625q0.6875 -1.28125 1.90625 -1.96875q1.234375 -0.703125 2.609375 -0.703125q0.828125 0 1.546875 0.1875q0.71875 0.1875 1.34375 0.578125zm6.429962 8.859375l4.171875 0q0.34375 -0.28125 0.640625 -0.28125q0.4375 0 0.6875 0.296875q0.265625 0.28125 0.265625 0.984375l0 0.90625l-8.671875 0l0 -2.015625q5.140625 -4.234375 6.21875 -5.453125q0.53125 -0.625 0.53125 -1.171875q0 -0.703125 -0.609375 -1.234375q-0.609375 -0.53125 -1.625 -0.53125q-1.015625 0 -1.6875 0.59375q-0.359375 0.3125 -0.5625 0.9375q-0.140625 0.390625 -0.375 0.5625q-0.21875 0.15625 -0.546875 0.15625q-0.390625 0 -0.671875 -0.28125q-0.28125 -0.28125 -0.28125 -0.640625q0 -0.5625 0.515625 -1.390625q0.515625 -0.84375 1.5 -1.34375q0.984375 -0.5 2.140625 -0.5q1.796875 0 2.953125 1.09375q1.15625 1.09375 1.15625 2.640625q0 0.78125 -0.328125 1.453125q-0.328125 0.671875 -1.59375 1.859375q-0.984375 0.9375 -3.828125 3.359375z" fill-rule="nonzero"></path><path fill="#000000" fill-opacity="0.0" d="m500.32285 111.91601l46.33072 0l0 36.314964l-46.33072 0z" fill-rule="nonzero"></path><path fill="#000000" d="m520.9801 126.22787q0.171875 -0.234375 0.375 -0.359375q0.21875 -0.125 0.453125 -0.125q0.421875 0 0.6875 0.296875q0.265625 0.28125 0.265625 0.96875l0 1.6093674q0 0.6875 -0.265625 0.984375q-0.265625 0.296875 -0.6875 0.296875q-0.375 0 -0.609375 -0.21875q-0.234375 -0.21875 -0.34375 -0.796875q-0.0625 -0.390625 -0.265625 -0.609375q-0.375 -0.40624237 -1.0625 -0.6562424q-0.671875 -0.25 -1.359375 -0.25q-0.859375 0 -1.578125 0.375q-0.703125 0.35936737 -1.25 1.2031174q-0.546875 0.828125 -0.546875 1.984375l0 1.234375q0 1.375 0.984375 2.296875q1.0 0.90625 2.78125 0.90625q1.046875 0 1.78125 -0.28125q0.4375 -0.171875 0.921875 -0.65625q0.296875 -0.296875 0.453125 -0.390625q0.171875 -0.09375 0.390625 -0.09375q0.375 0 0.65625 0.296875q0.296875 0.28125 0.296875 0.671875q0 0.390625 -0.390625 0.828125q-0.5625 0.65625 -1.453125 1.03125q-1.203125 0.5 -2.65625 0.5q-1.6875 0 -3.03125 -0.703125q-1.09375 -0.546875 -1.875 -1.75q-0.765625 -1.203125 -0.765625 -2.625l0 -1.296875q0 -1.484375 0.6875 -2.765625q0.6875 -1.2812424 1.90625 -1.9687424q1.234375 -0.703125 2.609375 -0.703125q0.828125 0 1.546875 0.1875q0.71875 0.1875 1.34375 0.578125zm10.929993 4.4062424q0.84375 0.578125 1.25 1.34375q0.421875 0.75 0.421875 1.6875q0 1.015625 -0.5625 1.875q-0.546875 0.84375 -1.59375 1.296875q-1.046875 0.4375 -2.734375 0.4375q-2.21875 0 -3.328125 -0.6875q-0.625 -0.390625 -0.625 -0.9375q0 -0.40625 0.265625 -0.6875q0.28125 -0.28125 0.671875 -0.28125q0.265625 0 0.5625 0.1875q0.40625 0.28125 0.765625 0.375q0.5625 0.125 1.53125 0.125q1.65625 0 2.390625 -0.421875q0.75 -0.4375 0.75 -1.234375q0 -0.578125 -0.4375 -1.109375q-0.421875 -0.546875 -1.140625 -0.84375q-0.421875 -0.171875 -1.40625 -0.234375q-0.484375 -0.03125 -0.734375 -0.296875q-0.25 -0.265625 -0.25 -0.65625q0 -0.40625 0.265625 -0.6875q0.28125 -0.28125 0.71875 -0.28125q0.9375 0 1.0 0q0.375 -0.046875 0.734375 -0.25q0.375 -0.203125 0.609375 -0.546875q0.234375 -0.359375 0.234375 -0.75q0 -0.5937424 -0.546875 -1.0312424q-0.53125 -0.453125 -1.59375 -0.453125q-1.375 0 -2.09375 0.796875q-0.21875 0.234375 -0.34375 0.296875q-0.203125 0.109375 -0.4375 0.109375q-0.390625 0 -0.671875 -0.28125q-0.28125 -0.28125 -0.28125 -0.6875q0 -0.640625 0.859375 -1.25q1.25 -0.875 3.109375 -0.875q1.765625 0 2.828125 1.0q1.0625 1.0 1.0625 2.4218674q0 0.71875 -0.3125 1.359375q-0.3125 0.640625 -0.9375 1.171875z" fill-rule="nonzero"></path><path fill="#000000" fill-opacity="0.0" d="m633.86615 112.585304l46.33069 0l0 36.314964l-46.33069 0z" fill-rule="nonzero"></path><path fill="#000000" d="m654.52344 126.897156q0.171875 -0.234375 0.375 -0.359375q0.21875 -0.125 0.453125 -0.125q0.421875 0 0.6875 0.296875q0.265625 0.28125 0.265625 0.96875l0 1.609375q0 0.6875 -0.265625 0.984375q-0.265625 0.296875 -0.6875 0.296875q-0.375 0 -0.609375 -0.21875q-0.234375 -0.21875 -0.34375 -0.796875q-0.0625 -0.390625 -0.265625 -0.609375q-0.375 -0.40625 -1.0625 -0.65625q-0.671875 -0.25 -1.359375 -0.25q-0.859375 0 -1.578125 0.375q-0.703125 0.359375 -1.25 1.203125q-0.546875 0.828125 -0.546875 1.984375l0 1.234375q0 1.375 0.984375 2.296875q1.0 0.90625 2.78125 0.90625q1.046875 0 1.78125 -0.28125q0.4375 -0.171875 0.921875 -0.65625q0.296875 -0.296875 0.453125 -0.390625q0.171875 -0.09375 0.390625 -0.09375q0.375 0 0.65625 0.296875q0.296875 0.28125 0.296875 0.671875q0 0.390625 -0.390625 0.828125q-0.5625 0.65625 -1.453125 1.03125q-1.203125 0.5 -2.65625 0.5q-1.6875 0 -3.03125 -0.703125q-1.09375 -0.546875 -1.875 -1.75q-0.765625 -1.203125 -0.765625 -2.625l0 -1.296875q0 -1.484375 0.6875 -2.765625q0.6875 -1.28125 1.90625 -1.96875q1.234375 -0.703125 2.609375 -0.703125q0.828125 0 1.546875 0.1875q0.71875 0.1875 1.34375 0.578125zm10.992432 -1.234375l0 7.4375q0.609375 0 0.890625 0.265625q0.296875 0.265625 0.296875 0.671875q0 0.421875 -0.296875 0.703125q-0.296875 0.265625 -0.890625 0.265625l0 0.75q0.609375 0 0.890625 0.28125q0.296875 0.265625 0.296875 0.671875q0 0.421875 -0.296875 0.6875q-0.296875 0.265625 -0.984375 0.265625l-2.546875 0q-0.6875 0 -0.984375 -0.265625q-0.28125 -0.265625 -0.28125 -0.6875q0 -0.421875 0.28125 -0.6875q0.296875 -0.265625 0.984375 -0.265625l0.75 0l0 -0.75l-5.171875 0l0 -1.59375l4.546875 -7.75l2.515625 0zm-1.890625 7.4375l0 -4.671875l-2.765625 4.671875l2.765625 0z" fill-rule="nonzero"></path></g></svg>

