<?xml version="1.0" standalone="yes"?>

<svg version="1.1" viewBox="0.0 0.0 823.0 235.0" fill="none" stroke="none" stroke-linecap="square" stroke-miterlimit="10" xmlns="http://www.w3.org/2000/svg" xmlns:xlink="http://www.w3.org/1999/xlink"><clipPath id="p.0"><path d="m0 0l823.0 0l0 235.0l-823.0 0l0 -235.0z" clip-rule="nonzero"></path></clipPath><g clip-path="url(#p.0)"><path fill="#000000" fill-opacity="0.0" d="m0 0l823.64044 0l0 235.75853l-823.64044 0z" fill-rule="nonzero"></path><path fill="#0092f8" fill-opacity="0.6731" d="m682.7559 111.419945l0 0c0 15.637924 -12.677063 28.314964 -28.315002 28.314964l0 0c-7.5095825 0 -14.711609 -2.9831696 -20.021667 -8.293259c-5.3101196 -5.310089 -8.293274 -12.512108 -8.293274 -20.021706l0 0c0 -15.637917 12.677063 -28.314957 28.314941 -28.314957l0 0c15.637939 0 28.315002 12.67704 28.315002 28.314957z" fill-rule="nonzero"></path><path stroke="#000000" stroke-width="2.0" stroke-linejoin="round" stroke-linecap="butt" d="m682.7559 111.419945l0 0c0 15.637924 -12.677063 28.314964 -28.315002 28.314964l0 0c-7.5095825 0 -14.711609 -2.9831696 -20.021667 -8.293259c-5.3101196 -5.310089 -8.293274 -12.512108 -8.293274 -20.021706l0 0c0 -15.637917 12.677063 -28.314957 28.314941 -28.314957l0 0c15.637939 0 28.315002 12.67704 28.315002 28.314957z" fill-rule="nonzero"></path><path fill="#000000" fill-opacity="0.0" d="m626.126 111.419945l-210.4567 0" fill-rule="nonzero"></path><path stroke="#000000" stroke-width="2.0" stroke-linejoin="round" stroke-linecap="butt" d="m626.126 111.419945l-198.4567 0" fill-rule="evenodd"></path><path fill="#000000" stroke="#000000" stroke-width="2.0" stroke-linecap="butt" d="m427.66928 108.116486l-9.076172 3.3034592l9.076172 3.3034668z" fill-rule="evenodd"></path><path fill="#0092f8" fill-opacity="0.6731" d="m415.66928 111.419945l0 0c0 15.637924 -12.677032 28.314964 -28.314941 28.314964l0 0c-7.509613 0 -14.711639 -2.9831696 -20.021698 -8.293259c-5.310089 -5.310089 -8.293274 -12.512108 -8.293274 -20.021706l0 0c0 -15.637917 12.677032 -28.314957 28.314972 -28.314957l0 0c15.637909 0 28.314941 12.67704 28.314941 28.314957z" fill-rule="nonzero"></path><path stroke="#000000" stroke-width="2.0" stroke-linejoin="round" stroke-linecap="butt" d="m415.66928 111.419945l0 0c0 15.637924 -12.677032 28.314964 -28.314941 28.314964l0 0c-7.509613 0 -14.711639 -2.9831696 -20.021698 -8.293259c-5.310089 -5.310089 -8.293274 -12.512108 -8.293274 -20.021706l0 0c0 -15.637917 12.677032 -28.314957 28.314972 -28.314957l0 0c15.637909 0 28.314941 12.67704 28.314941 28.314957z" fill-rule="nonzero"></path><path fill="#0092f8" fill-opacity="0.6731" d="m282.12598 111.28609l0 0c0 15.637924 -12.677032 28.314957 -28.314957 28.314957l0 0c-7.509598 0 -14.711609 -2.9831696 -20.021698 -8.293259c-5.310089 -5.3100815 -8.293259 -12.5121 -8.293259 -20.021698l0 0c0 -15.637917 12.677032 -28.314957 28.314957 -28.314957l0 0c15.637924 0 28.314957 12.67704 28.314957 28.314957z" fill-rule="nonzero"></path><path stroke="#000000" stroke-width="2.0" stroke-linejoin="round" stroke-linecap="butt" d="m282.12598 111.28609l0 0c0 15.637924 -12.677032 28.314957 -28.314957 28.314957l0 0c-7.509598 0 -14.711609 -2.9831696 -20.021698 -8.293259c-5.310089 -5.3100815 -8.293259 -12.5121 -8.293259 -20.021698l0 0c0 -15.637917 12.677032 -28.314957 28.314957 -28.314957l0 0c15.637924 0 28.314957 12.67704 28.314957 28.314957z" fill-rule="nonzero"></path><path fill="#000000" fill-opacity="0.0" d="m359.03937 111.821526l-76.91339 -0.53543854" fill-rule="nonzero"></path><path stroke="#000000" stroke-width="2.0" stroke-linejoin="round" stroke-linecap="butt" d="m359.03937 111.821526l-64.913666 -0.45189667" fill-rule="evenodd"></path><path fill="#000000" stroke="#000000" stroke-width="2.0" stroke-linecap="butt" d="m294.14868 108.06624l-9.0989685 3.2402039l9.0529785 3.3665695z" fill-rule="evenodd"></path><path fill="#000000" fill-opacity="0.0" d="m225.49606 112.08924l-76.91339 -0.53543854" fill-rule="nonzero"></path><path stroke="#000000" stroke-width="2.0" stroke-linejoin="round" stroke-linecap="butt" d="m225.49606 112.08924l-64.913666 -0.45189667" fill-rule="evenodd"></path><path fill="#000000" stroke="#000000" stroke-width="2.0" stroke-linecap="butt" d="m160.60538 108.333954l-9.0989685 3.2402039l9.0529785 3.3665695z" fill-rule="evenodd"></path><path fill="#0092f8" fill-opacity="0.6731" d="m148.58267 111.5538l0 0c0 15.637924 -12.677032 28.314957 -28.314957 28.314957l0 0c-7.50959 0 -14.7116165 -2.9831696 -20.021698 -8.293259c-5.310089 -5.3100815 -8.293259 -12.5121 -8.293259 -20.021698l0 0c0 -15.637917 12.67704 -28.314957 28.314957 -28.314957l0 0c15.637924 0 28.314957 12.67704 28.314957 28.314957z" fill-rule="nonzero"></path><path stroke="#000000" stroke-width="2.0" stroke-linejoin="round" stroke-linecap="butt" d="m148.58267 111.5538l0 0c0 15.637924 -12.677032 28.314957 -28.314957 28.314957l0 0c-7.50959 0 -14.7116165 -2.9831696 -20.021698 -8.293259c-5.310089 -5.3100815 -8.293259 -12.5121 -8.293259 -20.021698l0 0c0 -15.637917 12.67704 -28.314957 28.314957 -28.314957l0 0c15.637924 0 28.314957 12.67704 28.314957 28.314957z" fill-rule="nonzero"></path><path fill="#000000" fill-opacity="0.0" d="m91.95276 111.821526l-76.91339 -0.53543854" fill-rule="nonzero"></path><path stroke="#000000" stroke-width="2.0" stroke-linejoin="round" stroke-linecap="butt" d="m91.95276 111.821526l-64.91368 -0.45189667" fill-rule="evenodd"></path><path fill="#000000" stroke="#000000" stroke-width="2.0" stroke-linecap="butt" d="m27.062075 108.06624l-9.09897 3.2402039l9.0529785 3.3665695z" fill-rule="evenodd"></path><path fill="#000000" fill-opacity="0.0" d="m746.28345 56.63517l-63.527527 54.771652" fill-rule="nonzero"></path><path stroke="#000000" stroke-width="2.0" stroke-linejoin="round" stroke-linecap="butt" d="m746.28345 56.63517l-54.439148 46.935837" fill-rule="evenodd"></path><path fill="#000000" stroke="#000000" stroke-width="2.0" stroke-linecap="butt" d="m689.68726 101.06906l-4.716919 8.428566l9.031128 -3.4246597z" fill-rule="evenodd"></path><path fill="#cfe2f3" d="m682.7559 12.855643l127.055115 0l0 43.779526l-127.055115 0z" fill-rule="nonzero"></path><path stroke="#000000" stroke-width="2.0" stroke-linejoin="round" stroke-linecap="butt" d="m682.7559 12.855643l127.055115 0l0 43.779526l-127.055115 0z" fill-rule="nonzero"></path><path fill="#000000" d="m715.4624 33.24353l0 0.53125q0.46875 -0.453125 0.84375 -0.625q0.375 -0.171875 0.859375 -0.171875q0.421875 0 0.828125 0.203125q0.40625 0.203125 0.796875 0.609375q0.5 -0.40625 1.0 -0.59375q0.5 -0.203125 1.03125 -0.203125q1.0625 0 1.71875 0.5625q0.875 0.75 0.875 1.953125l0 4.25q0.59375 0 0.875 0.28125q0.296875 0.265625 0.296875 0.671875q0 0.421875 -0.296875 0.6875q-0.28125 0.265625 -0.96875 0.265625l-1.8125 0l0 -6.0q0 -0.4375 -0.15625 -0.59375q-0.15625 -0.171875 -0.484375 -0.171875q-0.3125 0 -0.578125 0.15625q-0.34375 0.234375 -0.84375 0.875l0 3.828125q0.59375 0 0.875 0.28125q0.296875 0.265625 0.296875 0.671875q0 0.421875 -0.296875 0.6875q-0.28125 0.265625 -0.96875 0.265625l-1.796875 0l0 -6.0q0 -0.421875 -0.171875 -0.59375q-0.15625 -0.171875 -0.484375 -0.171875q-0.328125 0 -0.65625 0.203125q-0.328125 0.203125 -0.78125 0.828125l0 3.828125q0.59375 0 0.875 0.28125q0.296875 0.265625 0.296875 0.671875q0 0.421875 -0.296875 0.6875q-0.28125 0.265625 -0.96875 0.265625l-1.71875 0q-0.6875 0 -0.96875 -0.265625q-0.296875 -0.265625 -0.296875 -0.6875q0 -0.421875 0.296875 -0.6875q0.28125 -0.265625 0.875 -0.265625l0 -4.609375q-0.59375 0 -0.875 -0.265625q-0.296875 -0.28125 -0.296875 -0.703125q0 -0.40625 0.296875 -0.671875q0.28125 -0.265625 0.96875 -0.265625l1.8125 0zm15.836182 8.421875l0 -0.453125q-0.703125 0.390625 -1.578125 0.578125q-0.859375 0.1875 -1.5625 0.1875q-1.53125 0 -2.484375 -0.8125q-0.953125 -0.8125 -0.953125 -1.796875q0 -1.1875 1.21875 -2.203125q1.21875 -1.03125 3.375 -1.03125q0.859375 0 1.984375 0.171875l0 -0.453125q0 -0.421875 -0.359375 -0.6875q-0.359375 -0.265625 -1.390625 -0.265625q-0.84375 0 -2.203125 0.328125q-0.5 0.125 -0.765625 0.125q-0.390625 0 -0.65625 -0.265625q-0.265625 -0.28125 -0.265625 -0.71875q0 -0.234375 0.09375 -0.40625q0.09375 -0.1875 0.265625 -0.28125q0.171875 -0.109375 0.703125 -0.265625q0.703125 -0.1875 1.421875 -0.296875q0.734375 -0.125 1.328125 -0.125q1.78125 0 2.75 0.765625q0.984375 0.765625 0.984375 2.09375l0 3.90625l0.328125 0q0.6875 0 0.96875 0.265625q0.296875 0.265625 0.296875 0.6875q0 0.421875 -0.296875 0.6875q-0.28125 0.265625 -0.96875 0.265625l-2.234375 0zm0 -3.40625q-1.140625 -0.21875 -2.09375 -0.21875q-1.171875 0 -2.0 0.5625q-0.515625 0.359375 -0.515625 0.734375q0 0.265625 0.25 0.4375q0.453125 0.296875 1.265625 0.296875q0.6875 0 1.546875 -0.265625q0.875 -0.265625 1.546875 -0.734375l0 -0.8125zm11.539307 -2.796875q-0.453125 -0.28125 -0.96875 -0.421875q-0.515625 -0.140625 -1.0625 -0.140625q-1.109375 0 -1.75 0.359375q-0.296875 0.15625 -0.296875 0.34375q0 0.203125 0.390625 0.40625q0.296875 0.15625 1.328125 0.296875q1.890625 0.25 2.640625 0.515625q0.96875 0.34375 1.5 1.03125q0.53125 0.671875 0.53125 1.421875q0 1.015625 -0.90625 1.703125q-1.28125 1.0 -3.34375 1.0q-0.828125 0 -1.53125 -0.15625q-0.703125 -0.140625 -1.28125 -0.421875q-0.140625 0.125 -0.296875 0.1875q-0.15625 0.0625 -0.328125 0.0625q-0.4375 0 -0.703125 -0.28125q-0.265625 -0.296875 -0.265625 -0.984375l0 -0.640625q0 -0.6875 0.265625 -0.96875q0.265625 -0.296875 0.6875 -0.296875q0.34375 0 0.5625 0.1875q0.234375 0.1875 0.375 0.65625q0.4375 0.375 1.046875 0.5625q0.609375 0.1875 1.40625 0.1875q1.3125 0 2.03125 -0.40625q0.34375 -0.203125 0.34375 -0.4375q0 -0.359375 -0.484375 -0.609375q-0.5 -0.234375 -2.03125 -0.40625q-2.296875 -0.234375 -3.0625 -0.921875q-0.78125 -0.6875 -0.78125 -1.671875q0 -1.015625 0.875 -1.703125q1.15625 -0.921875 3.0625 -0.921875q0.65625 0 1.265625 0.125q0.609375 0.125 1.15625 0.375q0.171875 -0.125 0.328125 -0.1875q0.15625 -0.0625 0.28125 -0.0625q0.390625 0 0.65625 0.296875q0.265625 0.28125 0.265625 0.96875l0 0.46875q0 0.625 -0.15625 0.84375q-0.296875 0.421875 -0.8125 0.421875q-0.34375 0 -0.609375 -0.203125q-0.25 -0.21875 -0.328125 -0.578125zm8.679932 -0.3125l0 3.8125q0 0.609375 0.25 0.796875q0.390625 0.3125 1.390625 0.3125q1.453125 0 2.6875 -0.625q0.46875 -0.234375 0.75 -0.234375q0.359375 0 0.625 0.28125q0.28125 0.265625 0.28125 0.671875q0 0.375 -0.296875 0.640625q-0.453125 0.4375 -1.796875 0.8125q-1.328125 0.359375 -2.25 0.359375q-1.765625 0 -2.65625 -0.765625q-0.890625 -0.765625 -0.890625 -1.890625l0 -4.171875l-0.6875 0q-0.6875 0 -0.984375 -0.265625q-0.28125 -0.265625 -0.28125 -0.703125q0 -0.40625 0.28125 -0.671875q0.296875 -0.265625 0.984375 -0.265625l0.6875 0l0 -1.7187519q0 -0.6875 0.265625 -0.96875q0.265625 -0.296875 0.6875 -0.296875q0.421875 0 0.6875 0.296875q0.265625 0.28125 0.265625 0.96875l0 1.7187519l3.515625 0q0.6875 0 0.96875 0.265625q0.296875 0.265625 0.296875 0.6875q0 0.421875 -0.296875 0.6875q-0.28125 0.265625 -0.96875 0.265625l-3.515625 0zm16.429993 3.265625l-7.796875 0q0.296875 0.75 1.046875 1.203125q0.765625 0.453125 2.046875 0.453125q1.0625 0 2.8125 -0.453125q0.734375 -0.1875 1.0 -0.1875q0.390625 0 0.640625 0.265625q0.265625 0.265625 0.265625 0.671875q0 0.375 -0.28125 0.640625q-0.375 0.34375 -1.8125 0.65625q-1.4375 0.3125 -2.765625 0.3125q-2.28125 0 -3.65625 -1.28125q-1.359375 -1.296875 -1.359375 -3.1875q0 -2.0 1.484375 -3.25q1.484375 -1.265625 3.40625 -1.265625q1.15625 0 2.125 0.40625q0.96875 0.40625 1.453125 0.875q0.65625 0.6875 1.09375 1.703125q0.296875 0.703125 0.296875 1.640625l0 0.796875zm-2.09375 -1.90625q-0.4375 -0.8125 -1.15625 -1.203125q-0.703125 -0.40625 -1.671875 -0.40625q-0.96875 0 -1.671875 0.40625q-0.703125 0.390625 -1.140625 1.203125l5.640625 0zm8.133057 -3.265625l0 1.1875q1.1875 -0.859375 1.875 -1.140625q0.703125 -0.296875 1.296875 -0.296875q0.9375 0 1.796875 0.6875q0.59375 0.453125 0.59375 0.9375q0 0.40625 -0.28125 0.703125q-0.28125 0.28125 -0.671875 0.28125q-0.359375 0 -0.75 -0.34375q-0.390625 -0.359375 -0.6875 -0.359375q-0.40625 0 -1.203125 0.5q-0.78125 0.5 -1.96875 1.5l0 2.859375l2.703125 0q0.6875 0 0.96875 0.265625q0.296875 0.265625 0.296875 0.6875q0 0.421875 -0.296875 0.6875q-0.28125 0.265625 -0.96875 0.265625l-5.75 0q-0.671875 0 -0.96875 -0.265625q-0.296875 -0.265625 -0.296875 -0.6875q0 -0.421875 0.296875 -0.6875q0.296875 -0.265625 0.96875 -0.265625l1.140625 0l0 -4.609375l-0.6875 0q-0.6875 0 -0.984375 -0.265625q-0.28125 -0.265625 -0.28125 -0.703125q0 -0.40625 0.28125 -0.671875q0.296875 -0.265625 0.984375 -0.265625l2.59375 0z" fill-rule="nonzero"></path><path fill="#000000" fill-opacity="0.0" d="m97.10236 93.12861l46.33071 0l0 36.314964l-46.33071 0z" fill-rule="nonzero"></path><path fill="#000000" d="m117.75964 107.44046q0.171875 -0.234375 0.375 -0.359375q0.21875 -0.125 0.453125 -0.125q0.421875 0 0.6875 0.296875q0.265625 0.28125 0.265625 0.96875l0 1.609375q0 0.6875 -0.265625 0.984375q-0.265625 0.296875 -0.6875 0.296875q-0.375 0 -0.609375 -0.21875q-0.234375 -0.21875 -0.34375 -0.796875q-0.0625 -0.390625 -0.265625 -0.609375q-0.375 -0.40625 -1.0625 -0.65625q-0.671875 -0.25 -1.359375 -0.25q-0.859375 0 -1.578125 0.375q-0.703125 0.359375 -1.25 1.203125q-0.546875 0.828125 -0.546875 1.984375l0 1.234375q0 1.375 0.984375 2.296875q1.0 0.90625 2.78125 0.90625q1.046875 0 1.78125 -0.28125q0.4375 -0.171875 0.921875 -0.65625q0.296875 -0.296875 0.453125 -0.390625q0.171875 -0.09375 0.390625 -0.09375q0.375 0 0.65625 0.296875q0.296875 0.28125 0.296875 0.671875q0 0.390625 -0.390625 0.828125q-0.5625 0.65625 -1.453125 1.03125q-1.203125 0.5 -2.65625 0.5q-1.6875 0 -3.03125 -0.703125q-1.09375 -0.546875 -1.875 -1.75q-0.765625 -1.203125 -0.765625 -2.625l0 -1.296875q0 -1.484375 0.6875 -2.765625q0.6875 -1.28125 1.90625 -1.96875q1.234375 -0.703125 2.609375 -0.703125q0.828125 0 1.546875 0.1875q0.71875 0.1875 1.34375 0.578125zm12.367447 3.703125l0 2.09375q0 1.84375 -1.078125 3.546875q-1.078125 1.703125 -3.0625 1.703125q-1.15625 0 -1.953125 -0.5q-0.78125 -0.515625 -1.5 -1.875q-0.703125 -1.359375 -0.703125 -2.875l0 -2.09375q0 -1.84375 1.0625 -3.546875q1.0625 -1.703125 3.0625 -1.703125q1.140625 0 1.9375 0.5q0.796875 0.5 1.515625 1.859375q0.71875 1.359375 0.71875 2.890625zm-1.921875 0q0 -1.546875 -0.859375 -2.703125q-0.484375 -0.640625 -1.375 -0.640625q-0.875 0 -1.421875 0.703125q-0.828125 1.0625 -0.828125 2.640625l0 2.09375q0 1.546875 0.875 2.703125q0.484375 0.640625 1.390625 0.640625q0.84375 0 1.390625 -0.703125q0.828125 -1.0625 0.828125 -2.640625l0 -2.09375z" fill-rule="nonzero"></path><path fill="#000000" fill-opacity="0.0" d="m230.64568 93.7979l46.330704 0l0 36.314957l-46.330704 0z" fill-rule="nonzero"></path><path fill="#000000" d="m251.30295 108.10976q0.171875 -0.234375 0.375 -0.359375q0.21875 -0.125 0.453125 -0.125q0.421875 0 0.6875 0.296875q0.265625 0.28125 0.265625 0.96875l0 1.609375q0 0.6875 -0.265625 0.984375q-0.265625 0.296875 -0.6875 0.296875q-0.375 0 -0.609375 -0.21875q-0.234375 -0.21875 -0.34375 -0.796875q-0.0625 -0.390625 -0.265625 -0.609375q-0.375 -0.40625 -1.0625 -0.65625q-0.671875 -0.25 -1.359375 -0.25q-0.859375 0 -1.578125 0.375q-0.703125 0.359375 -1.25 1.203125q-0.546875 0.828125 -0.546875 1.984375l0 1.234375q0 1.375 0.984375 2.296875q1.0 0.90625 2.78125 0.90625q1.046875 0 1.78125 -0.28125q0.4375 -0.171875 0.921875 -0.65625q0.296875 -0.296875 0.453125 -0.390625q0.171875 -0.09375 0.390625 -0.09375q0.375 0 0.65625 0.296875q0.296875 0.28125 0.296875 0.671875q0 0.390625 -0.390625 0.828125q-0.5625 0.65625 -1.453125 1.03125q-1.203125 0.5 -2.65625 0.5q-1.6875 0 -3.03125 -0.703125q-1.09375 -0.546875 -1.875 -1.75q-0.765625 -1.203125 -0.765625 -2.625l0 -1.296875q0 -1.484375 0.6875 -2.765625q0.6875 -1.28125 1.90625 -1.96875q1.234375 -0.703125 2.609375 -0.703125q0.828125 0 1.546875 0.1875q0.71875 0.1875 1.34375 0.578125zm9.179962 -1.546875l0 10.40625l1.921875 0q0.6875 0 0.96875 0.265625q0.296875 0.265625 0.296875 0.6875q0 0.421875 -0.296875 0.6875q-0.28125 0.265625 -0.96875 0.265625l-5.75 0q-0.68751526 0 -0.98439026 -0.265625q-0.28125 -0.265625 -0.28125 -0.6875q0 -0.421875 0.28125 -0.6875q0.296875 -0.265625 0.98439026 -0.265625l1.921875 0l0 -7.921875l-1.6875 0.4375q-0.421875 0.109375 -0.625 0.109375q-0.35939026 0 -0.62501526 -0.28125q-0.265625 -0.296875 -0.265625 -0.703125q0 -0.390625 0.1875 -0.609375q0.203125 -0.21875 0.82814026 -0.375l4.09375 -1.0625z" fill-rule="nonzero"></path><path fill="#000000" fill-opacity="0.0" d="m364.18896 93.7979l46.33072 0l0 36.314957l-46.33072 0z" fill-rule="nonzero"></path><path fill="#000000" d="m384.84625 108.10976q0.171875 -0.234375 0.375 -0.359375q0.21875 -0.125 0.453125 -0.125q0.421875 0 0.6875 0.296875q0.265625 0.28125 0.265625 0.96875l0 1.609375q0 0.6875 -0.265625 0.984375q-0.265625 0.296875 -0.6875 0.296875q-0.375 0 -0.609375 -0.21875q-0.234375 -0.21875 -0.34375 -0.796875q-0.0625 -0.390625 -0.265625 -0.609375q-0.375 -0.40625 -1.0625 -0.65625q-0.671875 -0.25 -1.359375 -0.25q-0.859375 0 -1.578125 0.375q-0.703125 0.359375 -1.25 1.203125q-0.546875 0.828125 -0.546875 1.984375l0 1.234375q0 1.375 0.984375 2.296875q1.0 0.90625 2.78125 0.90625q1.046875 0 1.78125 -0.28125q0.4375 -0.171875 0.921875 -0.65625q0.296875 -0.296875 0.453125 -0.390625q0.171875 -0.09375 0.390625 -0.09375q0.375 0 0.65625 0.296875q0.296875 0.28125 0.296875 0.671875q0 0.390625 -0.390625 0.828125q-0.5625 0.65625 -1.453125 1.03125q-1.203125 0.5 -2.65625 0.5q-1.6875 0 -3.03125 -0.703125q-1.09375 -0.546875 -1.875 -1.75q-0.765625 -1.203125 -0.765625 -2.625l0 -1.296875q0 -1.484375 0.6875 -2.765625q0.6875 -1.28125 1.90625 -1.96875q1.234375 -0.703125 2.609375 -0.703125q0.828125 0 1.546875 0.1875q0.71875 0.1875 1.34375 0.578125zm10.929962 4.40625q0.84375 0.578125 1.25 1.34375q0.421875 0.75 0.421875 1.6875q0 1.015625 -0.5625 1.875q-0.546875 0.84375 -1.59375 1.296875q-1.046875 0.4375 -2.734375 0.4375q-2.21875 0 -3.328125 -0.6875q-0.625 -0.390625 -0.625 -0.9375q0 -0.40625 0.265625 -0.6875q0.28125 -0.28125 0.671875 -0.28125q0.265625 0 0.5625 0.1875q0.40625 0.28125 0.765625 0.375q0.5625 0.125 1.53125 0.125q1.65625 0 2.390625 -0.421875q0.75 -0.4375 0.75 -1.234375q0 -0.578125 -0.4375 -1.109375q-0.421875 -0.546875 -1.140625 -0.84375q-0.421875 -0.171875 -1.40625 -0.234375q-0.484375 -0.03125 -0.734375 -0.296875q-0.25 -0.265625 -0.25 -0.65625q0 -0.40625 0.265625 -0.6875q0.28125 -0.28125 0.71875 -0.28125q0.9375 0 1.0 0q0.375 -0.046875 0.734375 -0.25q0.375 -0.203125 0.609375 -0.546875q0.234375 -0.359375 0.234375 -0.75q0 -0.59375 -0.546875 -1.03125q-0.53125 -0.453125 -1.59375 -0.453125q-1.375 0 -2.09375 0.796875q-0.21875 0.234375 -0.34375 0.296875q-0.203125 0.109375 -0.4375 0.109375q-0.390625 0 -0.671875 -0.28125q-0.28125 -0.28125 -0.28125 -0.6875q0 -0.640625 0.859375 -1.25q1.25 -0.875 3.109375 -0.875q1.765625 0 2.828125 1.0q1.0625 1.0 1.0625 2.421875q0 0.71875 -0.3125 1.359375q-0.3125 0.640625 -0.9375 1.171875z" fill-rule="nonzero"></path><path fill="#000000" fill-opacity="0.0" d="m631.2756 93.7979l46.33075 0l0 36.314957l-46.33075 0z" fill-rule="nonzero"></path><path fill="#000000" d="m651.93286 108.10976q0.171875 -0.234375 0.375 -0.359375q0.21875 -0.125 0.453125 -0.125q0.421875 0 0.6875 0.296875q0.265625 0.28125 0.265625 0.96875l0 1.609375q0 0.6875 -0.265625 0.984375q-0.265625 0.296875 -0.6875 0.296875q-0.375 0 -0.609375 -0.21875q-0.234375 -0.21875 -0.34375 -0.796875q-0.0625 -0.390625 -0.265625 -0.609375q-0.375 -0.40625 -1.0625 -0.65625q-0.671875 -0.25 -1.359375 -0.25q-0.859375 0 -1.578125 0.375q-0.703125 0.359375 -1.25 1.203125q-0.546875 0.828125 -0.546875 1.984375l0 1.234375q0 1.375 0.984375 2.296875q1.0 0.90625 2.78125 0.90625q1.046875 0 1.78125 -0.28125q0.4375 -0.171875 0.921875 -0.65625q0.296875 -0.296875 0.453125 -0.390625q0.171875 -0.09375 0.390625 -0.09375q0.375 0 0.65625 0.296875q0.296875 0.28125 0.296875 0.671875q0 0.390625 -0.390625 0.828125q-0.5625 0.65625 -1.453125 1.03125q-1.203125 0.5 -2.65625 0.5q-1.6875 0 -3.03125 -0.703125q-1.09375 -0.546875 -1.875 -1.75q-0.765625 -1.203125 -0.765625 -2.625l0 -1.296875q0 -1.484375 0.6875 -2.765625q0.6875 -1.28125 1.90625 -1.96875q1.234375 -0.703125 2.609375 -0.703125q0.828125 0 1.546875 0.1875q0.71875 0.1875 1.34375 0.578125zm10.164307 0.65625l-4.34375 0q-0.03125 0.5625 -0.28125 0.8125q-0.25 0.234375 -0.671875 0.234375q-0.421875 0 -0.6875 -0.28125q-0.265625 -0.28125 -0.265625 -0.96875l0 -1.6875l8.265625 0l0 1.890625l-3.078125 9.171875q-0.203125 0.578125 -0.4375 0.765625q-0.234375 0.1875 -0.578125 0.1875q-0.390625 0 -0.671875 -0.265625q-0.28125 -0.28125 -0.28125 -0.65625q0 -0.203125 0.140625 -0.640625l2.890625 -8.5625z" fill-rule="nonzero"></path><path fill="#0092f8" fill-opacity="0.6731" d="m628.12335 195.20604l0 0c0 15.637924 -12.677002 28.314957 -28.314941 28.314957l0 0c-7.5095825 0 -14.711609 -2.9831696 -20.021729 -8.293259c-5.3100586 -5.310089 -8.293274 -12.5121 -8.293274 -20.021698l0 0c0 -15.637924 12.677063 -28.314957 28.315002 -28.314957l0 0c15.637939 0 28.314941 12.677032 28.314941 28.314957z" fill-rule="nonzero"></path><path stroke="#000000" stroke-width="2.0" stroke-linejoin="round" stroke-linecap="butt" d="m628.12335 195.20604l0 0c0 15.637924 -12.677002 28.314957 -28.314941 28.314957l0 0c-7.5095825 0 -14.711609 -2.9831696 -20.021729 -8.293259c-5.3100586 -5.310089 -8.293274 -12.5121 -8.293274 -20.021698l0 0c0 -15.637924 12.677063 -28.314957 28.315002 -28.314957l0 0c15.637939 0 28.314941 12.677032 28.314941 28.314957z" fill-rule="nonzero"></path><path fill="#000000" fill-opacity="0.0" d="m571.4934 196.00919l-76.91336 -0.5354309" fill-rule="nonzero"></path><path stroke="#000000" stroke-width="2.0" stroke-linejoin="round" stroke-linecap="butt" d="m571.4934 196.00919l-64.913635 -0.45188904" fill-rule="evenodd"></path><path fill="#000000" stroke="#000000" stroke-width="2.0" stroke-linecap="butt" d="m506.60275 192.2539l-9.0989685 3.2402039l9.0529785 3.366562z" fill-rule="evenodd"></path><path fill="#0092f8" fill-opacity="0.6731" d="m494.58005 195.47375l0 0c0 15.637924 -12.677032 28.314957 -28.314941 28.314957l0 0c-7.509613 0 -14.711639 -2.9831696 -20.021729 -8.293259c-5.3100586 -5.310089 -8.293243 -12.5121 -8.293243 -20.021698l0 0c0 -15.637924 12.677032 -28.314957 28.314972 -28.314957l0 0c15.637909 0 28.314941 12.677032 28.314941 28.314957z" fill-rule="nonzero"></path><path stroke="#000000" stroke-width="2.0" stroke-linejoin="round" stroke-linecap="butt" d="m494.58005 195.47375l0 0c0 15.637924 -12.677032 28.314957 -28.314941 28.314957l0 0c-7.509613 0 -14.711639 -2.9831696 -20.021729 -8.293259c-5.3100586 -5.310089 -8.293243 -12.5121 -8.293243 -20.021698l0 0c0 -15.637924 12.677032 -28.314957 28.314972 -28.314957l0 0c15.637909 0 28.314941 12.677032 28.314941 28.314957z" fill-rule="nonzero"></path><path fill="#000000" fill-opacity="0.0" d="m437.95013 195.74147l-76.91339 -0.5354309" fill-rule="nonzero"></path><path stroke="#000000" stroke-width="2.0" stroke-linejoin="round" stroke-linecap="butt" d="m437.95013 195.74147l-64.913666 -0.45188904" fill-rule="evenodd"></path><path fill="#000000" stroke="#000000" stroke-width="2.0" stroke-linecap="butt" d="m373.05945 191.98619l-9.0989685 3.2402039l9.0529785 3.366562z" fill-rule="evenodd"></path><path fill="#0092f8" fill-opacity="0.6731" d="m361.03674 195.20604l0 0c0 15.637924 -12.677032 28.314957 -28.314972 28.314957l0 0c-7.5095825 0 -14.711609 -2.9831696 -20.021698 -8.293259c-5.310089 -5.310089 -8.293243 -12.5121 -8.293243 -20.021698l0 0c0 -15.637924 12.677032 -28.314957 28.314941 -28.314957l0 0c15.637939 0 28.314972 12.677032 28.314972 28.314957z" fill-rule="nonzero"></path><path stroke="#000000" stroke-width="2.0" stroke-linejoin="round" stroke-linecap="butt" d="m361.03674 195.20604l0 0c0 15.637924 -12.677032 28.314957 -28.314972 28.314957l0 0c-7.5095825 0 -14.711609 -2.9831696 -20.021698 -8.293259c-5.310089 -5.310089 -8.293243 -12.5121 -8.293243 -20.021698l0 0c0 -15.637924 12.677032 -28.314957 28.314941 -28.314957l0 0c15.637939 0 28.314972 12.677032 28.314972 28.314957z" fill-rule="nonzero"></path><path fill="#000000" fill-opacity="0.0" d="m309.55643 177.58398l46.33072 0l0 36.314972l-46.33072 0z" fill-rule="nonzero"></path><path fill="#000000" d="m330.2137 191.89584q0.171875 -0.234375 0.375 -0.359375q0.21875 -0.125 0.453125 -0.125q0.421875 0 0.6875 0.296875q0.265625 0.28125 0.265625 0.96875l0 1.609375q0 0.6875 -0.265625 0.984375q-0.265625 0.296875 -0.6875 0.296875q-0.375 0 -0.609375 -0.21875q-0.234375 -0.21875 -0.34375 -0.796875q-0.0625 -0.390625 -0.265625 -0.609375q-0.375 -0.40625 -1.0625 -0.65625q-0.671875 -0.25 -1.359375 -0.25q-0.859375 0 -1.578125 0.375q-0.703125 0.359375 -1.25 1.203125q-0.546875 0.828125 -0.546875 1.984375l0 1.234375q0 1.375 0.984375 2.296875q1.0 0.90625 2.78125 0.90625q1.046875 0 1.78125 -0.28125q0.4375 -0.171875 0.921875 -0.65625q0.296875 -0.296875 0.453125 -0.390625q0.171875 -0.09375 0.390625 -0.09375q0.375 0 0.65625 0.296875q0.296875 0.28125 0.296875 0.671875q0 0.390625 -0.390625 0.828125q-0.5625 0.65625 -1.453125 1.03125q-1.203125 0.5 -2.65625 0.5q-1.6875 0 -3.03125 -0.703125q-1.09375 -0.546875 -1.875 -1.75q-0.765625 -1.203125 -0.765625 -2.625l0 -1.296875q0 -1.484375 0.6875 -2.765625q0.6875 -1.28125 1.90625 -1.96875q1.234375 -0.703125 2.609375 -0.703125q0.828125 0 1.546875 0.1875q0.71875 0.1875 1.34375 0.578125zm6.4299316 8.859375l4.171875 0q0.34375 -0.28125 0.640625 -0.28125q0.4375 0 0.6875 0.296875q0.265625 0.28125 0.265625 0.984375l0 0.90625l-8.671875 0l0 -2.015625q5.140625 -4.234375 6.21875 -5.453125q0.53125 -0.625 0.53125 -1.171875q0 -0.703125 -0.609375 -1.234375q-0.609375 -0.53125 -1.625 -0.53125q-1.015625 0 -1.6875 0.59375q-0.359375 0.3125 -0.5625 0.9375q-0.140625 0.390625 -0.375 0.5625q-0.21875 0.15625 -0.546875 0.15625q-0.390625 0 -0.671875 -0.28125q-0.28125 -0.28125 -0.28125 -0.640625q0 -0.5625 0.515625 -1.390625q0.515625 -0.84375 1.5 -1.34375q0.984375 -0.5 2.140625 -0.5q1.796875 0 2.953125 1.09375q1.15625 1.09375 1.15625 2.640625q0 0.78125 -0.328125 1.453125q-0.328125 0.671875 -1.59375 1.859375q-0.984375 0.9375 -3.828125 3.359375z" fill-rule="nonzero"></path><path fill="#000000" fill-opacity="0.0" d="m443.09973 176.9147l46.33072 0l0 36.314957l-46.33072 0z" fill-rule="nonzero"></path><path fill="#000000" d="m463.75702 191.22655q0.171875 -0.234375 0.375 -0.359375q0.21875 -0.125 0.453125 -0.125q0.421875 0 0.6875 0.296875q0.265625 0.28125 0.265625 0.96875l0 1.609375q0 0.6875 -0.265625 0.984375q-0.265625 0.296875 -0.6875 0.296875q-0.375 0 -0.609375 -0.21875q-0.234375 -0.21875 -0.34375 -0.796875q-0.0625 -0.390625 -0.265625 -0.609375q-0.375 -0.40625 -1.0625 -0.65625q-0.671875 -0.25 -1.359375 -0.25q-0.859375 0 -1.578125 0.375q-0.703125 0.359375 -1.25 1.203125q-0.546875 0.828125 -0.546875 1.984375l0 1.234375q0 1.375 0.984375 2.296875q1.0 0.90625 2.78125 0.90625q1.046875 0 1.78125 -0.28125q0.4375 -0.171875 0.921875 -0.65625q0.296875 -0.296875 0.453125 -0.390625q0.171875 -0.09375 0.390625 -0.09375q0.375 0 0.65625 0.296875q0.296875 0.28125 0.296875 0.671875q0 0.390625 -0.390625 0.828125q-0.5625 0.65625 -1.453125 1.03125q-1.203125 0.5 -2.65625 0.5q-1.6875 0 -3.03125 -0.703125q-1.09375 -0.546875 -1.875 -1.75q-0.765625 -1.203125 -0.765625 -2.625l0 -1.296875q0 -1.484375 0.6875 -2.765625q0.6875 -1.28125 1.90625 -1.96875q1.234375 -0.703125 2.609375 -0.703125q0.828125 0 1.546875 0.1875q0.71875 0.1875 1.34375 0.578125zm10.992462 -1.234375l0 7.4375q0.609375 0 0.890625 0.265625q0.296875 0.265625 0.296875 0.671875q0 0.421875 -0.296875 0.703125q-0.296875 0.265625 -0.890625 0.265625l0 0.75q0.609375 0 0.890625 0.28125q0.296875 0.265625 0.296875 0.671875q0 0.421875 -0.296875 0.6875q-0.296875 0.265625 -0.984375 0.265625l-2.546875 0q-0.6875 0 -0.984375 -0.265625q-0.28125 -0.265625 -0.28125 -0.6875q0 -0.421875 0.28125 -0.6875q0.296875 -0.265625 0.984375 -0.265625l0.75 0l0 -0.75l-5.171875 0l0 -1.59375l4.546875 -7.75l2.515625 0zm-1.890625 7.4375l0 -4.671875l-2.765625 4.671875l2.765625 0z" fill-rule="nonzero"></path><path fill="#000000" fill-opacity="0.0" d="m576.64307 177.58398l46.33069 0l0 36.314972l-46.33069 0z" fill-rule="nonzero"></path><path fill="#000000" d="m597.30035 191.89584q0.171875 -0.234375 0.375 -0.359375q0.21875 -0.125 0.453125 -0.125q0.421875 0 0.6875 0.296875q0.265625 0.28125 0.265625 0.96875l0 1.609375q0 0.6875 -0.265625 0.984375q-0.265625 0.296875 -0.6875 0.296875q-0.375 0 -0.609375 -0.21875q-0.234375 -0.21875 -0.34375 -0.796875q-0.0625 -0.390625 -0.265625 -0.609375q-0.375 -0.40625 -1.0625 -0.65625q-0.671875 -0.25 -1.359375 -0.25q-0.859375 0 -1.578125 0.375q-0.703125 0.359375 -1.25 1.203125q-0.546875 0.828125 -0.546875 1.984375l0 1.234375q0 1.375 0.984375 2.296875q1.0 0.90625 2.78125 0.90625q1.046875 0 1.78125 -0.28125q0.4375 -0.171875 0.921875 -0.65625q0.296875 -0.296875 0.453125 -0.390625q0.171875 -0.09375 0.390625 -0.09375q0.375 0 0.65625 0.296875q0.296875 0.28125 0.296875 0.671875q0 0.390625 -0.390625 0.828125q-0.5625 0.65625 -1.453125 1.03125q-1.203125 0.5 -2.65625 0.5q-1.6875 0 -3.03125 -0.703125q-1.09375 -0.546875 -1.875 -1.75q-0.765625 -1.203125 -0.765625 -2.625l0 -1.296875q0 -1.484375 0.6875 -2.765625q0.6875 -1.28125 1.90625 -1.96875q1.234375 -0.703125 2.609375 -0.703125q0.828125 0 1.546875 0.1875q0.71875 0.1875 1.34375 0.578125zm6.6018066 0.65625l0 2.265625q1.0625 -0.328125 1.921875 -0.328125q1.765625 0 2.921875 1.203125q1.15625 1.1875 1.15625 3.078125q0 1.953125 -1.171875 3.0625q-1.171875 1.109375 -3.59375 1.109375q-2.140625 0 -3.375 -0.8125q-0.734375 -0.46875 -0.734375 -1.0625q0 -0.375 0.28125 -0.65625q0.296875 -0.296875 0.6875 -0.296875q0.3125 0 0.6875 0.3125q0.390625 0.3125 0.8125 0.4375q0.59375 0.171875 1.515625 0.171875q1.734375 0 2.359375 -0.546875q0.625 -0.5625 0.625 -1.703125q0 -1.109375 -0.609375 -1.75q-0.59375 -0.640625 -1.5625 -0.640625q-1.03125 0 -2.34375 0.65625q-0.296875 0.15625 -0.515625 0.15625q-0.40625 0 -0.6875 -0.296875q-0.265625 -0.296875 -0.265625 -0.765625l0 -5.484375l5.8125 0q0.6875 0 0.96875 0.265625q0.296875 0.265625 0.296875 0.6875q0 0.421875 -0.296875 0.6875q-0.28125 0.25 -0.96875 0.25l-3.921875 0z" fill-rule="nonzero"></path><path fill="#cfe2f3" d="m682.7559 173.85301l127.055115 0l0 43.77954l-127.055115 0z" fill-rule="nonzero"></path><path stroke="#000000" stroke-width="2.0" stroke-linejoin="round" stroke-linecap="butt" d="m682.7559 173.85301l127.055115 0l0 43.77954l-127.055115 0z" fill-rule="nonzero"></path><path fill="#000000" d="m712.78644 196.14716l0 4.609375l2.703125 0q0.6875 0 0.984375 0.265625q0.296875 0.265625 0.296875 0.6875q0 0.421875 -0.296875 0.6875q-0.296875 0.265625 -0.984375 0.265625l-5.734375 0q-0.6875 0 -0.984375 -0.265625q-0.296875 -0.265625 -0.296875 -0.6875q0 -0.421875 0.296875 -0.6875q0.296875 -0.265625 0.984375 -0.265625l1.125 0l0 -4.609375l-0.90625 0q-0.6875 0 -0.984375 -0.265625q-0.28125 -0.265625 -0.28125 -0.703125q0 -0.40625 0.28125 -0.671875q0.296875 -0.265625 0.984375 -0.265625l0.90625 0l0 -0.71875q0 -1.25 0.9375 -2.0625q0.9375 -0.828125 2.703125 -0.828125q0.78125 0 1.8125 0.140625q1.046875 0.140625 1.328125 0.40625q0.296875 0.265625 0.296875 0.671875q0 0.4375 -0.265625 0.71875q-0.25 0.265625 -0.625 0.265625q-0.1875 0 -0.53125 -0.078125q-1.1875 -0.21875 -2.09375 -0.21875q-0.9375 0 -1.296875 0.28125q-0.359375 0.28125 -0.359375 0.703125l0 0.71875l2.9375 0q0.6875 0 0.96875 0.265625q0.296875 0.265625 0.296875 0.6875q0 0.421875 -0.296875 0.6875q-0.28125 0.265625 -0.96875 0.265625l-2.9375 0zm15.976868 3.265625l-7.796875 0q0.296875 0.75 1.046875 1.203125q0.765625 0.453125 2.046875 0.453125q1.0625 0 2.8125 -0.453125q0.734375 -0.1875 1.0 -0.1875q0.390625 0 0.640625 0.265625q0.265625 0.265625 0.265625 0.671875q0 0.375 -0.28125 0.640625q-0.375 0.34375 -1.8125 0.65625q-1.4375 0.3125 -2.765625 0.3125q-2.28125 0 -3.65625 -1.28125q-1.359375 -1.296875 -1.359375 -3.1875q0 -2.0 1.484375 -3.25q1.484375 -1.265625 3.40625 -1.265625q1.15625 0 2.125 0.40625q0.96875 0.40625 1.453125 0.875q0.65625 0.6875 1.09375 1.703125q0.296875 0.703125 0.296875 1.640625l0 0.796875zm-2.09375 -1.90625q-0.4375 -0.8125 -1.15625 -1.203125q-0.703125 -0.40625 -1.671875 -0.40625q-0.96875 0 -1.671875 0.40625q-0.703125 0.390625 -1.140625 1.203125l5.640625 0zm10.226807 5.15625l0 -0.453125q-0.703125 0.390625 -1.578125 0.578125q-0.859375 0.1875 -1.5625 0.1875q-1.53125 0 -2.484375 -0.8125q-0.953125 -0.8125 -0.953125 -1.796875q0 -1.1875 1.21875 -2.203125q1.21875 -1.03125 3.375 -1.03125q0.859375 0 1.984375 0.171875l0 -0.453125q0 -0.421875 -0.359375 -0.6875q-0.359375 -0.265625 -1.390625 -0.265625q-0.84375 0 -2.203125 0.328125q-0.5 0.125 -0.765625 0.125q-0.390625 0 -0.65625 -0.265625q-0.265625 -0.28125 -0.265625 -0.71875q0 -0.234375 0.09375 -0.40625q0.09375 -0.1875 0.265625 -0.28125q0.171875 -0.109375 0.703125 -0.265625q0.703125 -0.1875 1.421875 -0.296875q0.734375 -0.125 1.328125 -0.125q1.78125 0 2.75 0.765625q0.984375 0.765625 0.984375 2.09375l0 3.90625l0.328125 0q0.6875 0 0.96875 0.265625q0.296875 0.265625 0.296875 0.6875q0 0.421875 -0.296875 0.6875q-0.28125 0.265625 -0.96875 0.265625l-2.234375 0zm0 -3.40625q-1.140625 -0.21875 -2.09375 -0.21875q-1.171875 0 -2.0 0.5625q-0.515625 0.359375 -0.515625 0.734375q0 0.265625 0.25 0.4375q0.453125 0.296875 1.265625 0.296875q0.6875 0 1.546875 -0.265625q0.875 -0.265625 1.546875 -0.734375l0 -0.8125zm9.023682 -3.109375l0 3.8125q0 0.609375 0.25 0.796875q0.390625 0.3125 1.390625 0.3125q1.453125 0 2.6875 -0.625q0.46875 -0.234375 0.75 -0.234375q0.359375 0 0.625 0.28125q0.28125 0.265625 0.28125 0.671875q0 0.375 -0.296875 0.640625q-0.453125 0.4375 -1.796875 0.8125q-1.328125 0.359375 -2.25 0.359375q-1.765625 0 -2.65625 -0.765625q-0.890625 -0.765625 -0.890625 -1.890625l0 -4.171875l-0.6875 0q-0.6875 0 -0.984375 -0.265625q-0.28125 -0.265625 -0.28125 -0.703125q0 -0.40625 0.28125 -0.671875q0.296875 -0.265625 0.984375 -0.265625l0.6875 0l0 -1.71875q0 -0.6875 0.265625 -0.96875q0.265625 -0.296875 0.6875 -0.296875q0.421875 0 0.6875 0.296875q0.265625 0.28125 0.265625 0.96875l0 1.71875l3.515625 0q0.6875 0 0.96875 0.265625q0.296875 0.265625 0.296875 0.6875q0 0.421875 -0.296875 0.6875q-0.28125 0.265625 -0.96875 0.265625l-3.515625 0zm15.695557 -1.90625l0 6.515625q0.609375 0 0.890625 0.28125q0.296875 0.265625 0.296875 0.671875q0 0.421875 -0.296875 0.6875q-0.296875 0.265625 -0.96875 0.265625l-1.8125 0l0 -0.4375q-0.828125 0.375 -1.578125 0.5625q-0.734375 0.1875 -1.390625 0.1875q-0.9375 0 -1.625 -0.390625q-0.6875 -0.40625 -1.09375 -1.09375q-0.28125 -0.5 -0.28125 -1.265625l0 -4.078125l-0.328125 0q-0.6875 0 -0.984375 -0.265625q-0.28125 -0.265625 -0.28125 -0.703125q0 -0.40625 0.28125 -0.671875q0.296875 -0.265625 0.984375 -0.265625l2.234375 0l0 5.65625q0 0.609375 0.28125 0.890625q0.296875 0.28125 0.90625 0.28125q0.5625 0 1.21875 -0.21875q0.671875 -0.234375 1.65625 -0.828125l0 -3.875l-0.6875 0q-0.6875 0 -0.984375 -0.265625q-0.296875 -0.265625 -0.296875 -0.703125q0 -0.40625 0.296875 -0.671875q0.296875 -0.265625 0.984375 -0.265625l2.578125 0zm6.7737427 0l0 1.1875q1.1875 -0.859375 1.875 -1.140625q0.703125 -0.296875 1.296875 -0.296875q0.9375 0 1.796875 0.6875q0.59375 0.453125 0.59375 0.9375q0 0.40625 -0.28125 0.703125q-0.28125 0.28125 -0.671875 0.28125q-0.359375 0 -0.75 -0.34375q-0.390625 -0.359375 -0.6875 -0.359375q-0.40625 0 -1.203125 0.5q-0.78125 0.5 -1.96875 1.5l0 2.859375l2.703125 0q0.6875 0 0.96875 0.265625q0.296875 0.265625 0.296875 0.6875q0 0.421875 -0.296875 0.6875q-0.28125 0.265625 -0.96875 0.265625l-5.75 0q-0.671875 0 -0.96875 -0.265625q-0.296875 -0.265625 -0.296875 -0.6875q0 -0.421875 0.296875 -0.6875q0.296875 -0.265625 0.96875 -0.265625l1.140625 0l0 -4.609375l-0.6875 0q-0.6875 0 -0.984375 -0.265625q-0.28125 -0.265625 -0.28125 -0.703125q0 -0.40625 0.28125 -0.671875q0.296875 -0.265625 0.984375 -0.265625l2.59375 0zm16.351807 5.171875l-7.796875 0q0.296875 0.75 1.046875 1.203125q0.765625 0.453125 2.046875 0.453125q1.0625 0 2.8125 -0.453125q0.734375 -0.1875 1.0 -0.1875q0.390625 0 0.640625 0.265625q0.265625 0.265625 0.265625 0.671875q0 0.375 -0.28125 0.640625q-0.375 0.34375 -1.8125 0.65625q-1.4375 0.3125 -2.765625 0.3125q-2.28125 0 -3.65625 -1.28125q-1.359375 -1.296875 -1.359375 -3.1875q0 -2.0 1.484375 -3.25q1.484375 -1.265625 3.40625 -1.265625q1.15625 0 2.125 0.40625q0.96875 0.40625 1.453125 0.875q0.65625 0.6875 1.09375 1.703125q0.296875 0.703125 0.296875 1.640625l0 0.796875zm-2.09375 -1.90625q-0.4375 -0.8125 -1.15625 -1.203125q-0.703125 -0.40625 -1.671875 -0.40625q-0.96875 0 -1.671875 0.40625q-0.703125 0.390625 -1.140625 1.203125l5.640625 0z" fill-rule="nonzero"></path><path fill="#000000" fill-opacity="0.0" d="m253.81102 139.60104c0 27.795288 25.291336 55.59056 50.582687 55.59056" fill-rule="nonzero"></path><path stroke="#000000" stroke-width="2.0" stroke-linejoin="round" stroke-linecap="butt" d="m255.30536 151.50764l0.09474182 0.38008118c0.05429077 0.21237183 0.10990906 0.42448425 0.16682434 0.636322c0.22769165 0.8474121 0.4762268 1.690567 0.7448425 2.5286255c0.5372009 1.676117 1.1546326 3.3319092 1.8461914 4.9605255c2.7662659 6.5145264 6.7180176 12.594742 11.460144 17.80635c9.484253 10.423233 22.129913 17.372055 34.775604 17.372055" fill-rule="evenodd"></path><path fill="#000000" stroke="#000000" stroke-width="2.0" stroke-linecap="butt" d="m258.58313 151.09627l-4.4080048 -8.594177l-2.1475067 9.416931z" fill-rule="evenodd"></path><path fill="#000000" fill-opacity="0.0" d="m682.7559 195.74278l-54.64569 -0.28346252" fill-rule="nonzero"></path><path stroke="#000000" stroke-width="2.0" stroke-linejoin="round" stroke-linecap="butt" d="m682.7559 195.74278l-42.645874 -0.22120667" fill-rule="evenodd"></path><path fill="#000000" stroke="#000000" stroke-width="2.0" stroke-linecap="butt" d="m640.1272 192.21814l-9.093201 3.2563477l9.05896 3.3504944z" fill-rule="evenodd"></path></g></svg>

